<svg width="363" height="225" viewBox="0 0 363 225" fill="none" xmlns="http://www.w3.org/2000/svg">
<g clip-path="url(#clip0_115_1498)">
<path d="M309.113 217.332C308.189 211.396 306.947 206.1 288.848 204.248C293.439 182.33 292.856 158.052 292.856 158.052L269.259 155.581C269.265 173.429 268.319 220.846 268.319 220.846C268.179 222.243 269.275 223.456 270.686 223.468L303.42 223.779C306.9 223.81 309.645 220.75 309.113 217.33V217.332Z" fill="#FFEAB0"/>
<path d="M227.568 218.435C228.409 212.486 230.838 206 248.91 203.905C243.859 183.358 243.016 158.942 243.016 158.942L266.645 156.077C266.882 173.923 268.473 221.324 268.473 221.324C268.631 222.719 267.553 223.946 266.142 223.979L233.347 224.806C229.869 224.884 227.081 221.861 227.568 218.435Z" fill="#FFEAB0"/>
<path d="M196.441 151.831L266.149 54.3842C268.807 50.6655 274.232 51.2802 275.983 55.4972L321.878 166.038C323.652 170.314 320.33 175.073 315.919 174.572L200.318 161.478C195.908 160.978 193.746 155.599 196.441 151.831Z" fill="#EF8433"/>
<path d="M291.402 19.1666L233.711 21.411C226.33 21.6982 220.581 27.882 220.869 35.223L222.897 86.7713C223.185 94.1123 229.403 99.8306 236.784 99.5435L294.474 97.299C301.855 97.0119 307.605 90.828 307.316 83.487L305.289 31.9388C305 24.5977 298.783 18.8794 291.402 19.1666Z" fill="#F8CD46"/>
<path opacity="0.41" d="M278.211 83.3883C282.12 83.3883 285.288 80.2368 285.288 76.3492C285.288 72.4616 282.12 69.31 278.211 69.31C274.302 69.31 271.134 72.4616 271.134 76.3492C271.134 80.2368 274.302 83.3883 278.211 83.3883Z" fill="#E08D44"/>
<path opacity="0.41" d="M251.347 84.4318C255.256 84.4318 258.425 81.2802 258.425 77.3926C258.425 73.505 255.256 70.3535 251.347 70.3535C247.439 70.3535 244.27 73.505 244.27 77.3926C244.27 81.2802 247.439 84.4318 251.347 84.4318Z" fill="#E08D44"/>
<path d="M272.063 72.0835C276.213 71.9221 279.445 68.4585 279.283 64.3473C279.122 60.2362 275.627 57.0343 271.478 57.1957C267.329 57.3571 264.096 60.8208 264.258 64.9319C264.419 69.0431 267.914 72.245 272.063 72.0835Z" fill="white"/>
<path d="M257.335 72.6555C261.484 72.4941 264.717 69.0305 264.555 64.9194C264.393 60.8082 260.899 57.6063 256.749 57.7677C252.6 57.9292 249.367 61.3928 249.529 65.5039C249.691 69.6151 253.185 72.817 257.335 72.6555Z" fill="white"/>
<path d="M271.414 69.3005C273.903 69.2037 275.842 67.1262 275.745 64.6604C275.648 62.1947 273.552 60.2742 271.063 60.3711C268.573 60.4679 266.634 62.5454 266.731 65.0112C266.828 67.477 268.924 69.3974 271.414 69.3005Z" fill="black"/>
<path d="M257.564 69.8386C260.053 69.7418 261.993 67.6644 261.896 65.1986C261.799 62.7328 259.702 60.8124 257.213 60.9092C254.724 61.0061 252.784 63.0835 252.881 65.5493C252.978 68.0151 255.075 69.9355 257.564 69.8386Z" fill="black"/>
<path fill-rule="evenodd" clip-rule="evenodd" d="M270.429 74.7982C271.315 74.3785 272.375 74.7527 272.797 75.634C273.219 76.5153 272.843 77.57 271.957 77.9897C268.094 79.8194 264.403 79.9945 261.698 79.719C260.345 79.5812 259.226 79.3297 258.437 79.1092C258.042 78.9988 257.728 78.8957 257.505 78.8174C257.394 78.7782 257.306 78.7452 257.242 78.7205C257.21 78.7081 257.184 78.6978 257.164 78.6899C257.154 78.686 257.146 78.6826 257.139 78.6798L257.13 78.6762L257.126 78.6747L257.125 78.674C257.124 78.6737 257.123 78.6735 257.81 77.0433L257.123 78.6735C256.218 78.2962 255.792 77.2606 256.171 76.3603C256.55 75.4618 257.588 75.0377 258.491 75.4109C258.492 75.4111 258.493 75.4114 258.494 75.4118C258.499 75.4138 258.509 75.4181 258.526 75.4244C258.559 75.4371 258.614 75.4581 258.692 75.4852C258.846 75.5396 259.085 75.6186 259.398 75.7061C260.026 75.8814 260.942 76.0887 262.06 76.2025C264.298 76.4304 267.299 76.2808 270.429 74.7982Z" fill="#B8602C"/>
<path d="M326.711 207.904C326.711 207.904 311.826 209.309 303.611 197.174" stroke="#A4DAF1" stroke-width="6.99692" stroke-miterlimit="10" stroke-linecap="round"/>
<path d="M301.254 202.482C305.548 202.482 309.029 198.981 309.029 194.663C309.029 190.344 305.548 186.843 301.254 186.843C296.96 186.843 293.479 190.344 293.479 194.663C293.479 198.981 296.96 202.482 301.254 202.482Z" fill="#50B5E8"/>
<path d="M350.429 182.204L350.43 181.871C350.475 169.733 340.618 159.856 328.414 159.812C316.21 159.767 306.281 169.572 306.236 181.71L306.235 182.043C306.19 194.182 316.047 204.058 328.251 204.103C340.455 204.147 350.384 194.343 350.429 182.204Z" fill="#50B5E5"/>
<path fill-rule="evenodd" clip-rule="evenodd" d="M331.821 185.589C332.151 186.012 332.072 186.622 331.646 186.949C329.921 188.276 328.235 188.323 326.984 187.997C326.375 187.838 325.881 187.596 325.539 187.395C325.367 187.293 325.23 187.2 325.133 187.13C325.084 187.094 325.045 187.064 325.016 187.042C325.002 187.03 324.99 187.021 324.98 187.013C324.976 187.009 324.972 187.006 324.968 187.003L324.964 186.999L324.962 186.997L324.961 186.997C324.96 186.996 324.96 186.996 325.592 186.258L324.96 186.996C324.55 186.649 324.501 186.036 324.85 185.629C325.198 185.222 325.81 185.172 326.22 185.515C326.221 185.516 326.224 185.518 326.227 185.521C326.237 185.529 326.256 185.543 326.282 185.562C326.336 185.601 326.421 185.659 326.533 185.726C326.76 185.859 327.086 186.018 327.478 186.12C328.228 186.315 329.271 186.324 330.453 185.415C330.879 185.087 331.492 185.165 331.821 185.589Z" fill="#305AB7"/>
<path d="M347.752 215.929C347.752 225.944 338.063 223.922 327.358 223.922C316.653 223.922 308.986 225.944 308.986 215.929C308.986 205.915 317.665 197.795 328.368 197.795C339.073 197.795 347.75 205.915 347.75 215.929H347.752Z" fill="#A4DAF1"/>
<path d="M329.701 208.367C329.701 208.367 344.586 209.772 352.801 197.638" stroke="#A4DAF1" stroke-width="6.99692" stroke-miterlimit="10" stroke-linecap="round"/>
<path d="M355.158 202.946C359.452 202.946 362.933 199.445 362.933 195.126C362.933 190.808 359.452 187.307 355.158 187.307C350.863 187.307 347.382 190.808 347.382 195.126C347.382 199.445 350.863 202.946 355.158 202.946Z" fill="#50B5E8"/>
<path d="M332.306 184.351C334.514 184.346 336.299 182.55 336.294 180.34C336.289 178.129 334.495 176.341 332.288 176.346C330.08 176.351 328.294 178.147 328.299 180.358C328.304 182.568 330.098 184.356 332.306 184.351Z" fill="white"/>
<path d="M324.471 184.324C326.679 184.319 328.464 182.523 328.459 180.313C328.454 178.102 326.66 176.314 324.453 176.319C322.245 176.324 320.459 178.12 320.464 180.331C320.469 182.541 322.263 184.329 324.471 184.324Z" fill="white"/>
<path d="M332.218 182.844C333.543 182.841 334.614 181.764 334.611 180.437C334.608 179.111 333.532 178.038 332.207 178.041C330.883 178.044 329.812 179.122 329.815 180.448C329.818 181.775 330.894 182.847 332.218 182.844Z" fill="#2B2840"/>
<path d="M324.344 182.817C325.669 182.814 326.74 181.737 326.737 180.41C326.734 179.084 325.658 178.011 324.333 178.014C323.009 178.017 321.938 179.095 321.941 180.421C321.944 181.747 323.02 182.82 324.344 182.817Z" fill="#2B2840"/>
<path opacity="0.27" d="M340.699 192.87C343.776 192.87 346.269 190.363 346.269 187.27C346.269 184.178 343.776 181.671 340.699 181.671C337.623 181.671 335.129 184.178 335.129 187.27C335.129 190.363 337.623 192.87 340.699 192.87Z" fill="#305AB7"/>
<path opacity="0.27" d="M316.127 192.87C319.204 192.87 321.698 190.363 321.698 187.27C321.698 184.178 319.204 181.671 316.127 181.671C313.051 181.671 310.557 184.178 310.557 187.27C310.557 190.363 313.051 192.87 316.127 192.87Z" fill="#305AB7"/>
<path d="M330.561 149.008C326.795 149.42 325.822 152.522 326.674 155.573C326.98 156.67 327.491 157.758 328.376 158.469C329.263 159.179 330.59 159.42 331.544 158.806C332.635 158.105 332.873 156.441 332.158 155.359C331.444 154.274 329.984 153.823 328.729 154.131C324.206 155.452 324.35 162.079 328.212 164.158" stroke="#5073D0" stroke-width="0.777217" stroke-miterlimit="10" stroke-linecap="round"/>
<path d="M147.07 218.41C146.146 212.474 140.685 201.379 122.586 199.525C130.226 177.927 130.813 159.13 130.813 159.13L95.8562 156.659C95.8623 174.507 94.9158 221.925 94.9158 221.925C94.7762 223.321 95.8726 224.534 97.2831 224.547L141.377 224.857C144.857 224.888 147.602 221.829 147.07 218.408V218.41Z" fill="#E3C6F4"/>
<path d="M26.6251 206.068C29.0807 200.579 37.2748 191.295 55.2298 194.226C53.5482 171.393 57.9359 153.098 57.9359 153.098L91.3758 159.637C86.6658 176.858 75.0839 222.866 75.0839 222.866C74.8498 224.249 73.4742 225.135 72.1089 224.78L30.4214 213.775C27.0562 212.897 25.2125 209.229 26.6271 206.068H26.6251Z" fill="#E3C6F4"/>
<path d="M163.208 143.716C163.13 181.238 132.263 187.74 94.5401 187.66C56.8152 187.583 26.5187 180.952 26.5988 143.432C26.6768 105.911 57.3224 75.5589 95.0473 75.6365C132.772 75.7141 163.288 106.195 163.21 143.716H163.208Z" fill="#98487E"/>
<path d="M54.4518 100.221C54.4518 100.221 35.3019 92.3284 19.7697 111.99C10.7933 123.352 18.1374 137.557 18.1374 137.557" stroke="#98487E" stroke-width="24.6806" stroke-miterlimit="10"/>
<path d="M21.8642 172.977C33.9394 172.977 43.7284 163.241 43.7284 151.231C43.7284 139.221 33.9394 129.485 21.8642 129.485C9.78893 129.485 0 139.221 0 151.231C0 163.241 9.78893 172.977 21.8642 172.977Z" fill="#C48BDA"/>
<path d="M121.908 1.45615L56.6348 7.74166C48.2839 8.54582 42.1696 15.931 42.9781 24.2369L48.6554 82.5604C49.4639 90.8663 56.8891 96.9477 65.2401 96.1435L130.513 89.858C138.864 89.0538 144.978 81.6687 144.17 73.3627L138.492 15.0393C137.684 6.73337 130.259 0.65199 121.908 1.45615Z" fill="#C48BDA"/>
<path d="M102.318 40.3041C107.68 39.7877 111.608 35.0629 111.091 29.7509C110.573 24.4388 105.807 20.5512 100.445 21.0675C95.0828 21.5839 91.155 26.3087 91.6721 31.6208C92.1892 36.9328 96.9553 40.8204 102.318 40.3041Z" fill="white"/>
<path d="M83.2883 42.1379C88.6505 41.6216 92.5783 36.8967 92.0612 31.5847C91.5441 26.2727 86.778 22.385 81.4157 22.9014C76.0535 23.4178 72.1257 28.1426 72.6428 33.4546C73.1599 38.7667 77.926 42.6543 83.2883 42.1379Z" fill="white"/>
<path d="M101.246 36.7038C104.462 36.394 106.818 33.5594 106.508 30.3724C106.198 27.1854 103.339 24.8529 100.122 25.1627C96.9055 25.4724 94.5493 28.3071 94.8596 31.4941C95.1698 34.6811 98.0289 37.0135 101.246 36.7038Z" fill="#30263D"/>
<path d="M83.6699 38.5451C86.8866 38.2354 89.2427 35.4007 88.9325 32.2137C88.6222 29.0267 85.7631 26.6943 82.5465 27.004C79.3298 27.3138 76.9737 30.1484 77.2839 33.3354C77.5941 36.5224 80.4532 38.8549 83.6699 38.5451Z" fill="#30263D"/>
<path fill-rule="evenodd" clip-rule="evenodd" d="M102.046 48.7267C102.682 49.6369 102.455 50.8871 101.54 51.5191C97.7408 54.1435 93.9341 54.5625 91.0976 54.3173C89.687 54.1953 88.5118 53.9098 87.6806 53.6514C87.2638 53.5218 86.9299 53.3979 86.6919 53.3025C86.5728 53.2548 86.4774 53.214 86.4073 53.183C86.3722 53.1675 86.3434 53.1545 86.3211 53.1442C86.31 53.139 86.3004 53.1346 86.2926 53.1309L86.282 53.1259L86.2776 53.1238L86.2757 53.1229C86.2748 53.1224 86.2739 53.122 87.1505 51.315L86.2739 53.122C85.2705 52.6405 84.8496 51.4411 85.3337 50.4431C85.8164 49.4481 87.0165 49.029 88.0181 49.5037C88.0212 49.5051 88.0301 49.5092 88.0448 49.5157C88.0742 49.5287 88.1266 49.5512 88.2004 49.5808C88.3482 49.6401 88.5803 49.7269 88.8843 49.8214C89.4947 50.0112 90.3804 50.2274 91.4469 50.3196C93.5647 50.5027 96.3774 50.1998 99.2386 48.2233C100.154 47.5912 101.411 47.8166 102.046 48.7267Z" fill="#6D2860"/>
<path opacity="0.64" d="M105.05 45.4737C105.308 44.2644 103.2 42.7957 100.343 42.1932C97.4852 41.5906 94.9598 42.0824 94.7021 43.2916C94.4443 44.5008 96.5518 45.9696 99.4093 46.5721C102.267 47.1747 104.792 46.6829 105.05 45.4737Z" fill="#98487E"/>
<path opacity="0.64" d="M86.6994 47.9945C89.3978 46.8822 91.1996 45.0548 90.7238 43.9129C90.248 42.771 87.6748 42.7469 84.9763 43.8592C82.2779 44.9715 80.476 46.7988 80.9518 47.9408C81.4276 49.0827 84.0009 49.1067 86.6994 47.9945Z" fill="#98487E"/>
<path d="M131.54 101.142C131.54 101.142 151.17 107.769 165.372 87.1377C173.581 75.2138 165.315 61.5195 165.315 61.5195" stroke="#98487E" stroke-width="24.6806" stroke-miterlimit="10"/>
<path d="M160.695 69.8632C172.77 69.8632 182.559 60.127 182.559 48.1169C182.559 36.1067 172.77 26.3705 160.695 26.3705C148.62 26.3705 138.831 36.1067 138.831 48.1169C138.831 60.127 148.62 69.8632 160.695 69.8632Z" fill="#C48BDA"/>
<path d="M239.035 161.452C239.53 153.03 223.979 145.066 217.744 144.398C211.508 143.73 216.951 150.612 216.457 159.034C215.962 167.456 220.616 174.825 226.85 175.493C233.085 176.161 238.54 169.875 239.035 161.454V161.452Z" fill="#98487E"/>
<path d="M222.464 221.469C221.994 218.287 219.12 212.324 209.439 211.256C213.621 199.727 214.013 189.667 214.013 189.667L200.23 188.236C200.159 197.789 199.45 223.168 199.45 223.168C199.37 223.915 199.951 224.569 200.707 224.581L219.391 224.894C221.253 224.924 222.735 223.299 222.466 221.465L222.464 221.469Z" fill="#E3C6F4"/>
<path d="M197.892 185.92L181.462 186.925C181.462 186.925 179.809 197.752 182.31 209.647C171.293 208.593 164.388 217.805 163.417 221.063C162.887 222.839 164.121 224.659 165.969 224.891H187.334C188.084 224.985 188.519 223.762 188.78 222.743C188.78 222.743 196.9 195.05 197.892 185.92Z" fill="#E3C6F4"/>
<path d="M158.389 180.188C159.824 202.257 177.385 204.893 198.551 203.396C219.717 201.9 236.471 196.833 235.036 174.766C233.6 152.697 215.278 136.021 194.112 137.518C172.946 139.015 156.954 158.119 158.389 180.188Z" fill="#98487E"/>
<path d="M175.235 144.367L213.703 141.645C218.625 141.298 222.345 136.854 222.01 131.723L219.666 95.6875C219.331 90.5557 215.071 86.6778 210.149 87.027L171.681 89.7491C166.76 90.0963 163.039 94.5399 163.374 99.6717L165.719 135.707C166.053 140.838 170.314 144.716 175.235 144.367Z" fill="#C48BDA"/>
<path d="M193.254 122.039C193.273 118.918 190.853 116.373 187.849 116.355C184.844 116.336 182.392 118.85 182.372 121.971C182.352 125.092 184.772 127.637 187.777 127.655C190.782 127.674 193.234 125.16 193.254 122.039Z" fill="white"/>
<path d="M203.892 121.287C203.912 118.166 201.492 115.621 198.487 115.603C195.482 115.584 193.031 118.098 193.011 121.219C192.991 124.34 195.411 126.885 198.416 126.903C201.421 126.922 203.873 124.408 203.892 121.287Z" fill="white"/>
<path d="M191.199 121.637C191.211 119.765 189.759 118.238 187.956 118.227C186.153 118.215 184.682 119.724 184.67 121.596C184.659 123.468 186.11 124.995 187.913 125.006C189.716 125.018 191.187 123.509 191.199 121.637Z" fill="black"/>
<path d="M201.891 120.881C201.903 119.009 200.451 117.482 198.648 117.471C196.845 117.459 195.374 118.968 195.362 120.84C195.35 122.712 196.802 124.239 198.605 124.25C200.408 124.261 201.879 122.753 201.891 120.881Z" fill="black"/>
<path fill-rule="evenodd" clip-rule="evenodd" d="M200.894 128.666C201.255 129.171 201.135 129.871 200.627 130.23L199.974 129.315C200.627 130.23 200.626 130.23 200.626 130.231L200.625 130.231L200.623 130.233L200.617 130.237C200.613 130.24 200.608 130.243 200.603 130.247C200.591 130.254 200.577 130.264 200.559 130.276C200.523 130.3 200.474 130.331 200.413 130.368C200.291 130.443 200.118 130.543 199.901 130.653C199.467 130.873 198.845 131.139 198.08 131.338C196.54 131.736 194.404 131.859 192.073 130.76C191.51 130.495 191.269 129.825 191.536 129.265C191.803 128.705 192.476 128.466 193.039 128.732C194.789 129.557 196.362 129.463 197.511 129.166C198.09 129.016 198.558 128.814 198.877 128.653C199.036 128.572 199.156 128.503 199.232 128.456C199.27 128.433 199.297 128.416 199.312 128.406C199.319 128.401 199.324 128.398 199.326 128.397L199.323 128.399L199.322 128.399C199.323 128.398 199.324 128.397 199.326 128.397C199.326 128.396 199.326 128.396 199.326 128.397C199.833 128.042 200.534 128.162 200.894 128.666Z" fill="#6D2860"/>
<path d="M193.243 121.624C193.04 118.512 190.447 116.16 187.449 116.372C184.452 116.584 182.185 119.28 182.388 122.392" fill="#A2528F"/>
<path d="M203.883 120.871C203.68 117.759 201.087 115.406 198.089 115.619C195.092 115.831 192.825 118.526 193.028 121.639" fill="#A2528F"/>
<path d="M208.252 87.162C208.252 87.162 209.135 116.652 164.692 119.795L163.43 100.397C162.863 94.1583 166.953 90.0455 172.121 89.6493L208.252 87.16V87.162Z" fill="#6D2860"/>
<path d="M198.857 87.8256C198.857 87.8256 208.312 116.709 221.193 115.798L219.931 96.4004C219.684 90.1393 215.1 86.6411 209.926 86.976L198.855 87.8276L198.857 87.8256Z" fill="#6D2860"/>
<path d="M232.567 191.133C238.822 191.133 243.893 186.09 243.893 179.869C243.893 173.648 238.822 168.605 232.567 168.605C226.313 168.605 221.242 173.648 221.242 179.869C221.242 186.09 226.313 191.133 232.567 191.133Z" fill="#C48BDA"/>
</g>
<defs>
<clipPath id="clip0_115_1498">
<rect width="363" height="225" fill="white"/>
</clipPath>
</defs>
</svg>
