<svg width="24" height="24" viewBox="0 0 24 24" fill="none" xmlns="http://www.w3.org/2000/svg">
<path d="M18 11.9996C17.9951 11.4735 17.7832 10.9705 17.41 10.5996L13.12 6.29958C12.9326 6.11333 12.6792 6.00879 12.415 6.00879C12.1508 6.00879 11.8974 6.11333 11.71 6.29958C11.6163 6.39254 11.5419 6.50315 11.4911 6.62501C11.4403 6.74686 11.4142 6.87757 11.4142 7.00958C11.4142 7.14159 11.4403 7.2723 11.4911 7.39416C11.5419 7.51602 11.6163 7.62662 11.71 7.71958L15 10.9996H5C4.73478 10.9996 4.48043 11.1049 4.29289 11.2925C4.10536 11.48 4 11.7344 4 11.9996C4 12.2648 4.10536 12.5192 4.29289 12.7067C4.48043 12.8942 4.73478 12.9996 5 12.9996H15L11.71 16.2896C11.5217 16.4766 11.4154 16.7307 11.4144 16.996C11.4135 17.2614 11.518 17.5163 11.705 17.7046C11.892 17.8929 12.1461 17.9992 12.4115 18.0001C12.6768 18.0011 12.9317 17.8966 13.12 17.7096L17.41 13.4096C17.7856 13.0362 17.9978 12.5292 18 11.9996Z" fill="#2F2F2F"/>
</svg>
