<svg width="24" height="24" viewBox="0 0 24 24" fill="none" xmlns="http://www.w3.org/2000/svg">
<g clip-path="url(#clip0_107_183)">
<path d="M13 24H11.431C11.2748 24 11.1207 23.9635 10.9811 23.8932C10.8416 23.823 10.7204 23.721 10.6274 23.5955C10.5343 23.47 10.472 23.3244 10.4454 23.1705C10.4187 23.0165 10.4285 22.8585 10.474 22.709C10.7603 21.8311 10.937 20.9212 11 20C11 19.4696 10.7893 18.9609 10.4142 18.5858C10.0391 18.2107 9.53043 18 9 18C8.46957 18 7.96086 18.2107 7.58579 18.5858C7.21071 18.9609 7 19.4696 7 20C7.06299 20.9212 7.23967 21.8311 7.526 22.709C7.57147 22.8585 7.58127 23.0165 7.55464 23.1705C7.528 23.3244 7.46567 23.47 7.37262 23.5955C7.27958 23.721 7.15843 23.823 7.01887 23.8932C6.87931 23.9635 6.72524 24 6.569 24H5C3.67441 23.9984 2.40356 23.4711 1.46622 22.5338C0.528882 21.5964 0.00158786 20.3256 0 19L0 11C0.00158786 9.67441 0.528882 8.40356 1.46622 7.46622C2.40356 6.52888 3.67441 6.00159 5 6H5.272C5.11363 5.3443 5.02249 4.67418 5 4C5 2.93913 5.42143 1.92172 6.17157 1.17157C6.92172 0.421427 7.93913 0 9 0C10.0609 0 11.0783 0.421427 11.8284 1.17157C12.5786 1.92172 13 2.93913 13 4C12.9775 4.67418 12.8864 5.3443 12.728 6H13C14.2872 6.00015 15.5249 6.49615 16.4561 7.38498C17.3872 8.27381 17.9401 9.48716 18 10.773C18.6558 10.6148 19.3258 10.5234 20 10.5C21.0609 10.5 22.0783 10.9214 22.8284 11.6716C23.5786 12.4217 24 13.4391 24 14.5C24 15.5609 23.5786 16.5783 22.8284 17.3284C22.0783 18.0786 21.0609 18.5 20 18.5C19.3259 18.4769 18.6558 18.3858 18 18.228V19C17.9984 20.3256 17.4711 21.5964 16.5338 22.5338C15.5964 23.4711 14.3256 23.9984 13 24ZM12.728 22H13C13.7956 22 14.5587 21.6839 15.1213 21.1213C15.6839 20.5587 16 19.7956 16 19V16.931C16 16.7748 16.0365 16.6207 16.1068 16.4811C16.177 16.3416 16.279 16.2204 16.4045 16.1274C16.53 16.0343 16.6756 15.972 16.8295 15.9454C16.9835 15.9187 17.1415 15.9285 17.291 15.974C18.1689 16.2601 19.0788 16.4368 20 16.5C20.5304 16.5 21.0391 16.2893 21.4142 15.9142C21.7893 15.5391 22 15.0304 22 14.5C22 13.9696 21.7893 13.4609 21.4142 13.0858C21.0391 12.7107 20.5304 12.5 20 12.5C19.0788 12.5632 18.1689 12.7399 17.291 13.026C17.1415 13.0715 16.9835 13.0813 16.8295 13.0546C16.6756 13.028 16.53 12.9657 16.4045 12.8726C16.279 12.7796 16.177 12.6584 16.1068 12.5189C16.0365 12.3793 16 12.2252 16 12.069V11C16 10.2044 15.6839 9.44129 15.1213 8.87868C14.5587 8.31607 13.7956 8 13 8H11.431C11.2748 8.00004 11.1207 7.96348 10.9811 7.89323C10.8416 7.82299 10.7204 7.72102 10.6274 7.59551C10.5343 7.47 10.472 7.32443 10.4454 7.17048C10.4187 7.01653 10.4285 6.85848 10.474 6.709C10.7603 5.83114 10.937 4.92123 11 4C11 3.46957 10.7893 2.96086 10.4142 2.58579C10.0391 2.21071 9.53043 2 9 2C8.46957 2 7.96086 2.21071 7.58579 2.58579C7.21071 2.96086 7 3.46957 7 4C7.06299 4.92123 7.23967 5.83114 7.526 6.709C7.57147 6.85848 7.58127 7.01653 7.55464 7.17048C7.528 7.32443 7.46567 7.47 7.37262 7.59551C7.27958 7.72102 7.15843 7.82299 7.01887 7.89323C6.87931 7.96348 6.72524 8.00004 6.569 8H5C4.20435 8 3.44129 8.31607 2.87868 8.87868C2.31607 9.44129 2 10.2044 2 11V19C2 19.7956 2.31607 20.5587 2.87868 21.1213C3.44129 21.6839 4.20435 22 5 22H5.272C5.11363 21.3443 5.02249 20.6742 5 20C5 18.9391 5.42143 17.9217 6.17157 17.1716C6.92172 16.4214 7.93913 16 9 16C10.0609 16 11.0783 16.4214 11.8284 17.1716C12.5786 17.9217 13 18.9391 13 20C12.9775 20.6742 12.8864 21.3443 12.728 22Z" fill="#092643"/>
</g>
<defs>
<clipPath id="clip0_107_183">
<rect width="24" height="24" fill="white"/>
</clipPath>
</defs>
</svg>
