<svg width="33" height="32" viewBox="0 0 33 32" fill="none" xmlns="http://www.w3.org/2000/svg">
<g clip-path="url(#clip0_55_3193)">
<path d="M32.3334 8V21.468C32.3334 24.3173 31.224 26.996 29.2094 29.0107L26.6094 31.6107C26.3494 31.8707 26.008 32.0013 25.6667 32.0013C25.3254 32.0013 24.984 31.8707 24.724 31.6107C24.2027 31.0893 24.2027 30.2467 24.724 29.7253L27.324 27.1253C28.8347 25.6147 29.6667 23.6053 29.6667 21.468V8C29.6667 7.26533 29.068 6.66667 28.3334 6.66667C27.5987 6.66667 27 7.26533 27 8C27 8 26.984 18.724 26.9827 18.756C26.9627 19.6387 26.664 20.516 26.0654 21.2307L22.628 24.8093C22.3667 25.0827 22.0174 25.2187 21.6667 25.2187C21.3334 25.2187 21.0014 25.0947 20.7427 24.8467C20.212 24.336 20.1947 23.492 20.7054 22.9613L24.0827 19.4493C24.256 19.24 24.3374 18.9587 24.3334 18.6693C24.3334 18.6693 24.3334 18.668 24.3334 18.6667V18.608C24.316 18.3133 24.2067 18.0133 23.9947 17.776C23.5054 17.2307 22.664 17.184 22.12 17.6733L17.9027 21.5547C18.6094 22.8893 19.0014 24.3867 19.0014 25.9227V30.668C19.0014 31.404 18.404 32.0013 17.668 32.0013C16.932 32.0013 16.3347 31.404 16.3347 30.668V25.9227C16.3347 24.0627 15.5507 22.276 14.1814 21.016L10.536 17.6613C10.0054 17.1853 9.16271 17.2293 8.67337 17.776C8.23604 18.2653 8.22404 19.0133 8.64537 19.516L12.072 23.0773C12.5827 23.608 12.5667 24.452 12.0347 24.9627C11.5067 25.4733 10.66 25.4587 10.1494 24.9253L6.66137 21.2973C6.04804 20.568 5.73737 19.6973 5.69737 18.8253C5.69071 18.772 5.66537 8.00133 5.66537 8.00133C5.66537 7.26667 5.06671 6.668 4.33204 6.668C3.59737 6.668 2.99871 7.26667 2.99871 8.00133V21.4693C2.99871 23.6067 3.83071 25.6147 5.34137 27.1267L7.94137 29.7267C8.46271 30.248 8.46271 31.0907 7.94137 31.612C7.68137 31.872 7.34004 32.0027 6.99871 32.0027C6.65737 32.0027 6.31604 31.872 6.05604 31.612L3.45604 29.012C1.44137 26.9973 0.332039 24.3187 0.332039 21.4693V8C0.332039 5.79467 2.12671 4 4.33204 4C6.53737 4 8.33204 5.79467 8.33204 8V14.9147C9.66404 14.4453 11.2014 14.68 12.3267 15.6867L15.9854 19.0533C16.1014 19.16 16.204 19.2773 16.3147 19.3893L20.3254 15.6987C21.46 14.6827 23 14.4467 24.332 14.916V8.00133C24.332 5.796 26.1267 4.00133 28.332 4.00133C30.5374 4.00133 32.332 5.796 32.332 8.00133L32.3334 8ZM9.66671 4.26667C9.66671 1.91333 11.4614 0 13.6667 0C14.7094 0 15.636 0.36 16.3334 0.969333C17.0307 0.36 17.9574 0 19 0C21.2054 0 23 1.91467 23 4.26667C23 6.93867 20.2774 9.68533 17.9947 11.5173C17.5134 11.904 16.924 12.0973 16.3334 12.0973C15.7427 12.0973 15.1534 11.904 14.6707 11.516C12.388 9.684 9.66671 6.93733 9.66671 4.26533V4.26667ZM12.3334 4.26667C12.3334 5.472 13.8694 7.45467 16.3414 9.43867C18.7974 7.45467 20.3334 5.472 20.3334 4.26667C20.3334 3.384 19.7347 2.66667 19 2.66667C18.3854 2.66667 17.6667 3.016 17.6667 4C17.6667 4.736 17.0694 5.33333 16.3334 5.33333C15.5974 5.33333 15 4.736 15 4C15 3.016 14.2814 2.66667 13.6667 2.66667C12.932 2.66667 12.3334 3.38533 12.3334 4.26667Z" fill="#2F2F2F"/>
</g>
<defs>
<clipPath id="clip0_55_3193">
<rect width="32" height="32" fill="white" transform="translate(0.333374)"/>
</clipPath>
</defs>
</svg>
