<svg width="24" height="24" viewBox="0 0 24 24" fill="none" xmlns="http://www.w3.org/2000/svg">
<g clip-path="url(#clip0_823_1797)">
<path d="M21 17H20V16C20 15.448 19.553 15 19 15C18.447 15 18 15.448 18 16V17H13C11.346 17 10 18.346 10 20V20.5C10 21.327 9.327 22 8.5 22C7.673 22 7 21.327 7 20.5V3.5C7 2.961 6.867 2.456 6.649 2H9C9.553 2 10 1.552 10 1C10 0.448 9.553 0 9 0H3.5C1.57 0 0 1.57 0 3.5V4C0 5.654 1.346 7 3 7H5V20.5C5 22.429 6.569 23.999 8.498 24H20.5C22.43 24 24 22.43 24 20.5V20C24 18.346 22.654 17 21 17ZM5 5H3C2.448 5 2 4.551 2 4V3.5C2 2.673 2.673 2 3.5 2C4.327 2 5 2.673 5 3.5V5ZM22 20.5C22 21.327 21.327 22 20.5 22H11.662C11.879 21.545 12 21.037 12 20.5V20C12 19.449 12.448 19 13 19H21C21.552 19 22 19.449 22 20V20.5ZM17 14C20.859 14 24 10.86 24 7C24 3.14 20.859 0 17 0C13.141 0 10 3.14 10 7C10 10.86 13.141 14 17 14ZM17 2C19.757 2 22 4.243 22 7C22 9.757 19.757 12 17 12C14.243 12 12 9.757 12 7C12 4.243 14.243 2 17 2ZM13.518 6.8C13.904 6.405 14.537 6.4 14.932 6.785L16.063 7.893C16.207 8.034 16.442 8.032 16.585 7.893L18.808 5.759C19.205 5.377 19.84 5.39 20.222 5.788C20.604 6.186 20.591 6.819 20.193 7.202L17.98 9.326C17.527 9.773 16.928 9.997 16.327 9.997C15.726 9.997 15.123 9.773 14.663 9.323L13.532 8.215C13.137 7.828 13.132 7.194 13.518 6.8Z" fill="#2F2F2F"/>
</g>
<defs>
<clipPath id="clip0_823_1797">
<rect width="24" height="24" fill="white"/>
</clipPath>
</defs>
</svg>
