<svg width="24" height="24" viewBox="0 0 24 24" fill="none" xmlns="http://www.w3.org/2000/svg">
<g clip-path="url(#clip0_823_1799)">
<path d="M16.7128 13.8044C17.0968 14.1974 17.0938 14.8244 16.7038 15.2104C16.6298 15.2834 14.8638 17.0004 11.9998 17.0004C9.13583 17.0004 7.36983 15.2844 7.29583 15.2104C6.90383 14.8214 6.89983 14.1894 7.28883 13.7964C7.67883 13.4044 8.30983 13.4004 8.70383 13.7894C8.74983 13.8344 9.98383 14.9994 11.9998 14.9994C14.0158 14.9994 15.2498 13.8334 15.3018 13.7844C15.6978 13.4024 16.3298 13.4104 16.7128 13.8044ZM8.49983 11.0004C9.32783 11.0004 9.99983 10.3284 9.99983 9.50041C9.99983 8.67241 9.32783 8.00041 8.49983 8.00041C7.67183 8.00041 6.99983 8.67241 6.99983 9.50041C6.99983 10.3284 7.67183 11.0004 8.49983 11.0004ZM15.4998 8.00041C14.6718 8.00041 13.9998 8.67241 13.9998 9.50041C13.9998 10.3284 14.6718 11.0004 15.4998 11.0004C16.3278 11.0004 16.9998 10.3284 16.9998 9.50041C16.9998 8.67241 16.3278 8.00041 15.4998 8.00041ZM23.9998 12.3404V19.0004C23.9998 21.7574 21.7568 24.0004 18.9998 24.0004H13.0828C6.08183 24.0004 0.470831 19.2084 0.0288309 12.8544C-0.211169 9.37841 1.05583 5.97641 3.50783 3.52141C5.96183 1.06541 9.37083 -0.20459 12.8358 0.0294099C19.0968 0.45441 23.9998 5.86141 23.9998 12.3404ZM21.9998 12.3404C21.9998 6.90941 17.9148 2.37841 12.7008 2.02441C12.4718 2.00841 12.2428 2.00141 12.0138 2.00141C9.35783 2.00141 6.80483 3.04941 4.92283 4.93441C2.87983 6.98041 1.82283 9.81741 2.02483 12.7164C2.39683 18.0964 7.04783 22.0014 13.0828 22.0014H18.9998C20.6538 22.0014 21.9998 20.6554 21.9998 19.0014V12.3404Z" fill="#2F2F2F"/>
</g>
<defs>
<clipPath id="clip0_823_1799">
<rect width="24" height="24" fill="white"/>
</clipPath>
</defs>
</svg>
