<svg width="24" height="24" viewBox="0 0 24 24" fill="none" xmlns="http://www.w3.org/2000/svg">
<path d="M22.2075 5.02869C21.3112 3.53492 19.7178 2.53906 17.9253 2.53906H5.97511C4.18256 2.53906 2.58923 3.53492 1.69294 5.02869C0.597516 7.02041 0 9.2113 0 11.5018C0 16.9789 2.19089 21.4602 4.97925 21.4602C6.47302 21.4602 7.66805 20.066 8.5643 17.1781C8.66386 16.7797 9.0622 16.481 9.56016 16.481H14.4398C14.8382 16.481 15.2365 16.7797 15.4357 17.1781C16.332 20.066 17.527 21.4602 19.0208 21.4602C21.8091 21.4602 24 16.9789 24 11.5018C23.9004 9.2113 23.3029 7.02041 22.2075 5.02869ZM18.9211 19.4685C18.6224 19.4685 17.9253 18.6718 17.2282 16.5806C16.8299 15.286 15.6348 14.4893 14.3402 14.4893H9.56016C8.26556 14.4893 7.07053 15.3855 6.67219 16.5806C5.97511 18.6718 5.27798 19.4685 4.97925 19.4685C3.98339 19.4685 1.99172 16.3814 1.99172 11.5018C1.99172 9.60964 2.48963 7.71753 3.38592 6.02459C3.98344 5.12834 4.9793 4.53083 5.97516 4.53083H17.9254C18.9212 4.53083 19.9171 5.12834 20.5146 6.02459C21.4109 7.71753 21.9088 9.60964 21.9088 11.5018C21.9087 16.3814 19.917 19.4685 18.9211 19.4685Z" fill="#2F2F2F"/>
<path d="M9.00001 9H8.00003V8.00002C8.00003 7.40002 7.60004 7.00003 7.00004 7.00003C6.40004 7.00003 6.00006 7.40002 6.00006 8.00002V9H5.00008C4.40008 9 4.00009 9.39998 4.00009 9.99998C4.00009 10.6 4.40008 11 5.00008 11H6.00001V12C6.00001 12.6 6.4 13 7 13C7.6 13 7.99998 12.6 7.99998 12V11H9.00001C9.60001 11 10 10.6 10 10C10 9.39998 9.60001 9 9.00001 9Z" fill="#2F2F2F"/>
<path d="M18.5 9.99997C19.3284 9.99997 20 9.3284 20 8.49997C20 7.67154 19.3284 6.99997 18.5 6.99997C17.6716 6.99997 17 7.67154 17 8.49997C17 9.3284 17.6716 9.99997 18.5 9.99997Z" fill="#2F2F2F"/>
<path d="M15.5 13C16.3284 13 17 12.3284 17 11.5C17 10.6715 16.3284 9.99997 15.5 9.99997C14.6716 9.99997 14 10.6715 14 11.5C14 12.3284 14.6716 13 15.5 13Z" fill="#2F2F2F"/>
</svg>
