<svg width="33" height="32" viewBox="0 0 33 32" fill="none" xmlns="http://www.w3.org/2000/svg">
<g clip-path="url(#clip0_55_3186)">
<path d="M29.3333 12.6666C27.9667 12.6666 26.796 13.4906 26.2813 14.6666H21.8107C21.576 13.7639 21.124 12.9519 20.4947 12.3013C21.0947 11.3226 22.02 9.81195 22.824 8.49728C24.096 8.67328 25.4107 8.10395 26.124 6.93862C27.0853 5.36928 26.592 3.31595 25.0213 2.35462C23.452 1.39328 21.3987 1.88662 20.4373 3.45595C19.724 4.62128 19.8147 6.05062 20.5493 7.10395C19.74 8.42528 18.8107 9.94528 18.212 10.9213C17.7187 10.7706 17.2067 10.6653 16.6653 10.6653C16.124 10.6653 15.612 10.7706 15.1187 10.9213C14.52 9.94395 13.5893 8.42528 12.7813 7.10395C13.516 6.05062 13.6067 4.62128 12.8933 3.45595C11.932 1.88662 9.87999 1.39195 8.30932 2.35462C6.73999 3.31595 6.24666 5.36795 7.20799 6.93862C7.92132 8.10395 9.23599 8.67195 10.5067 8.49728C11.312 9.81195 12.2373 11.3226 12.836 12.3013C12.2067 12.9519 11.7547 13.7653 11.52 14.6666H7.04932C6.53466 13.4906 5.36399 12.6666 3.99732 12.6666C2.15866 12.6666 0.666656 14.1586 0.666656 15.9999C0.666656 17.8413 2.15866 19.3333 3.99999 19.3333C5.36666 19.3333 6.53732 18.5093 7.05199 17.3333H11.5227C11.7573 18.2359 12.2093 19.0479 12.8387 19.6986L10.5093 23.5026C9.23732 23.328 7.92266 23.8959 7.20932 25.0613C6.24799 26.6306 6.74132 28.6826 8.31066 29.6453C9.87999 30.6066 11.9333 30.1133 12.8947 28.5426C13.608 27.3773 13.5173 25.9493 12.7827 24.896L15.12 21.0786C15.612 21.2293 16.124 21.3346 16.6653 21.3346C17.2067 21.3346 17.7187 21.2293 18.2107 21.0786L20.5493 24.8973C19.8147 25.9506 19.724 27.38 20.4373 28.544C21.3987 30.1133 23.4507 30.608 25.0213 29.6466C26.5907 28.6853 27.0853 26.6333 26.124 25.0626C25.4107 23.8973 24.096 23.3293 22.824 23.504L20.4947 19.6999C21.124 19.0493 21.576 18.236 21.8107 17.3346H26.2813C26.796 18.5106 27.9667 19.3346 29.3333 19.3346C31.1747 19.3346 32.6667 17.8426 32.6667 16.0013C32.6667 14.1599 31.1747 12.6679 29.3333 12.6679V12.6666ZM14 15.9999C14 14.5293 15.196 13.3333 16.6667 13.3333C18.1373 13.3333 19.3333 14.5293 19.3333 15.9999C19.3333 17.4706 18.1373 18.6666 16.6667 18.6666C15.196 18.6666 14 17.4706 14 15.9999Z" fill="#2F2F2F"/>
</g>
<defs>
<clipPath id="clip0_55_3186">
<rect width="32" height="32" fill="white" transform="translate(0.666656)"/>
</clipPath>
</defs>
</svg>
