<svg width="32" height="32" viewBox="0 0 32 32" fill="none" xmlns="http://www.w3.org/2000/svg">
<g clip-path="url(#clip0_55_3179)">
<path d="M25.3333 5.33333H23.8653C23.2453 2.29467 20.552 0 17.3333 0H6.66667C2.99067 0 0 2.99067 0 6.66667V23.8053C0 24.864 0.58 25.832 1.512 26.3307C1.936 26.5587 2.40133 26.6707 2.86533 26.6707C3.42 26.6707 3.97333 26.5093 4.452 26.1907L8.38533 23.568C9.30667 26.148 11.7733 28 14.6667 28H22.2627L27.548 31.524C28.028 31.844 28.58 32.0053 29.1347 32.0053C29.5987 32.0053 30.0627 31.892 30.488 31.664C31.4213 31.1653 32 30.1973 32 29.1387V12C32 8.324 29.0093 5.33333 25.3333 5.33333ZM2.97333 23.972C2.948 23.988 2.87333 24.036 2.77067 23.9813C2.66533 23.9253 2.66533 23.836 2.66533 23.8067V6.66667C2.66533 4.46133 4.46 2.66667 6.66533 2.66667H17.332C19.5373 2.66667 21.332 4.46133 21.332 6.66667V16C21.332 18.2053 19.5373 20 17.332 20H9.332C8.896 20 8.61067 20.212 8.57867 20.2333L2.97333 23.972ZM29.3333 29.14C29.3333 29.168 29.3333 29.2587 29.228 29.3147C29.1227 29.3693 29.0507 29.3213 29.0267 29.3053L23.4067 25.5573C23.188 25.412 22.9307 25.3333 22.6667 25.3333H14.6667C12.928 25.3333 11.4467 24.2187 10.896 22.6667H17.3333C21.0093 22.6667 24 19.676 24 16V8H25.3333C27.5387 8 29.3333 9.79467 29.3333 12V29.14Z" fill="#2F2F2F"/>
</g>
<defs>
<clipPath id="clip0_55_3179">
<rect width="32" height="32" fill="white"/>
</clipPath>
</defs>
</svg>
