<svg width="380" height="351" viewBox="0 0 380 351" fill="none" xmlns="http://www.w3.org/2000/svg">
<circle opacity="0.3" cx="185.5" cy="175.5" r="175.5" fill="white"/>
<circle opacity="0.3" cx="185" cy="176" r="117" fill="white"/>
<circle opacity="0.7" cx="185" cy="176" r="80" fill="white"/>
<mask id="mask0_260_3600" style="mask-type:luminance" maskUnits="userSpaceOnUse" x="105" y="96" width="161" height="161">
<path d="M186.699 256.139C230.879 255.669 266.313 219.472 265.843 175.292C265.372 131.112 229.176 95.678 184.995 96.1483C140.815 96.6187 105.381 132.815 105.852 176.995C106.322 221.176 142.519 256.61 186.699 256.139Z" fill="white"/>
</mask>
<g mask="url(#mask0_260_3600)">
<path d="M114.423 280.472C113.984 240.021 146.42 206.87 186.873 206.432C227.324 205.994 260.475 238.429 260.913 278.882" fill="#EF8433"/>
<path d="M221.211 129.252L150.89 130C141.893 130.096 134.678 137.467 134.774 146.463L135.446 209.638C135.542 218.635 142.913 225.85 151.909 225.755L222.23 225.006C231.226 224.91 238.442 217.539 238.346 208.543L237.674 145.368C237.578 136.371 230.207 129.156 221.211 129.252Z" fill="#F8CD46"/>
<path fill-rule="evenodd" clip-rule="evenodd" d="M193.852 189.639C195.094 189.998 195.81 191.296 195.451 192.538L193.202 191.888C195.451 192.538 195.45 192.539 195.45 192.54L195.449 192.543L195.448 192.548L195.444 192.56L195.436 192.589C195.429 192.609 195.421 192.634 195.412 192.662C195.394 192.718 195.369 192.789 195.338 192.872C195.276 193.038 195.186 193.255 195.063 193.508C194.818 194.011 194.43 194.673 193.842 195.348C192.63 196.739 190.634 198.095 187.612 198.265C184.356 198.448 182.097 197.404 180.64 196.127C179.936 195.511 179.459 194.877 179.151 194.38C178.997 194.131 178.883 193.913 178.803 193.745C178.762 193.66 178.73 193.587 178.706 193.528C178.693 193.499 178.683 193.473 178.674 193.45C178.669 193.439 178.665 193.429 178.662 193.419L178.657 193.406L178.655 193.4L178.653 193.397C178.653 193.395 178.652 193.394 180.848 192.582L178.652 193.394C178.204 192.181 178.824 190.835 180.036 190.387C181.233 189.945 182.559 190.542 183.025 191.722C183.026 191.725 183.028 191.728 183.03 191.732C183.044 191.761 183.076 191.826 183.13 191.914C183.24 192.091 183.43 192.348 183.724 192.606C184.261 193.076 185.319 193.705 187.349 193.59C188.957 193.5 189.822 192.836 190.313 192.272C190.577 191.969 190.751 191.671 190.855 191.457C190.906 191.351 190.938 191.272 190.954 191.23C190.959 191.217 190.962 191.208 190.964 191.203C191.337 189.983 192.622 189.284 193.852 189.639ZM190.955 191.233L190.955 191.233L190.955 191.233Z" fill="#B8602C"/>
<path opacity="0.46" d="M155.415 210.753C163.271 210.599 169.514 204.103 169.36 196.243C169.206 188.383 162.714 182.135 154.858 182.289C147.002 182.443 140.759 188.939 140.913 196.799C141.067 204.659 147.56 210.907 155.415 210.753Z" fill="#FFA101"/>
<path opacity="0.46" d="M219.174 209.505C227.029 209.351 233.273 202.855 233.119 194.995C232.965 187.135 226.472 180.888 218.617 181.041C210.761 181.195 204.518 187.692 204.672 195.552C204.825 203.412 211.318 209.659 219.174 209.505Z" fill="#FFA101"/>
<path d="M197.119 186.711C202.894 186.65 207.527 181.935 207.466 176.182C207.405 170.428 202.673 165.813 196.897 165.875C191.121 165.936 186.488 170.65 186.549 176.404C186.611 182.158 191.343 186.773 197.119 186.711Z" fill="white"/>
<path d="M178.089 186.998C183.865 186.937 188.498 182.223 188.437 176.469C188.375 170.715 183.643 166.101 177.867 166.162C172.092 166.224 167.459 170.938 167.52 176.692C167.581 182.445 172.313 187.06 178.089 186.998Z" fill="white"/>
<path d="M177.992 186.434C181.076 186.401 183.55 183.884 183.517 180.812C183.485 177.74 180.958 175.276 177.873 175.309C174.789 175.342 172.315 177.859 172.348 180.931C172.381 184.003 174.907 186.467 177.992 186.434Z" fill="#30263D"/>
<path d="M197.142 185.859C200.227 185.827 202.701 183.309 202.668 180.237C202.635 177.165 200.108 174.701 197.024 174.734C193.939 174.767 191.465 177.284 191.498 180.356C191.531 183.428 194.058 185.892 197.142 185.859Z" fill="#30263D"/>
<rect x="170.958" y="214.402" width="34.891" height="44.8599" rx="8.37615" transform="rotate(-0.791174 170.958 214.402)" fill="#444444"/>
<circle cx="200.151" cy="220.242" r="3.11527" transform="rotate(-1.12129 200.151 220.242)" fill="#D5D5D5"/>
<path d="M161.697 232.635L149.172 244.311C146.158 247.12 145.512 251.651 147.62 255.191C149.321 258.047 152.492 259.693 155.806 259.44L168.905 258.44C176.696 258.288 183.104 252.255 183.725 244.487L184.223 238.271C184.264 237.747 184.256 237.221 184.197 236.698C183.764 232.874 180.726 229.868 176.898 229.475L172.458 229.02C168.518 228.616 164.595 229.933 161.697 232.635Z" fill="#F8CD46"/>
<path d="M214.142 231.608L227.115 242.785C230.236 245.474 231.059 249.977 229.091 253.597C227.503 256.517 224.399 258.286 221.078 258.162L207.949 257.676C200.158 257.829 193.519 252.051 192.594 244.313L191.854 238.122C191.792 237.6 191.78 237.073 191.819 236.549C192.101 232.711 195.019 229.588 198.83 229.046L203.247 228.417C207.169 227.859 211.141 229.022 214.142 231.608Z" fill="#F8CD46"/>
</g>
<g filter="url(#filter0_d_260_3600)">
<path d="M92.8543 73.0614C92.8543 85.2817 87.6098 96.2742 79.2508 103.917C79.0729 104.08 78.8975 104.24 78.7171 104.395C72.1747 110.176 63.8082 113.937 54.5922 114.706C54.1261 114.746 53.6576 114.776 53.189 114.799C52.4849 114.836 51.7783 114.854 51.0667 114.854C36.8869 114.854 24.3609 107.793 16.8037 96.9984C16.5431 96.6275 16.2875 96.2492 16.0395 95.8683C11.7547 89.3084 9.26904 81.4756 9.26904 73.0614C9.26904 66.9099 10.5971 61.0716 12.9825 55.8122C13.1754 55.3862 13.3784 54.9602 13.5839 54.5443C16.6734 48.3101 21.2714 42.9504 26.9042 38.9538C27.1122 38.8034 27.3226 38.6556 27.5381 38.5103C34.2359 33.9424 42.3368 31.2688 51.0617 31.2688C52.6853 31.2688 54.284 31.3615 55.8626 31.5419C56.3061 31.592 56.7446 31.6497 57.1806 31.7148C66.9403 33.1481 75.6025 37.949 81.9444 44.9048C82.2927 45.2857 82.6335 45.6691 82.9618 46.06C86.8005 50.5903 89.6896 55.9425 91.3233 61.8208C91.4436 62.2443 91.5563 62.6753 91.6616 63.1063C92.4408 66.296 92.8543 69.6311 92.8543 73.0614Z" fill="#F7543E"/>
<path fill-rule="evenodd" clip-rule="evenodd" d="M7.96317 51.768L7.96674 51.7607C11.515 44.6009 16.7906 38.4486 23.2542 33.857C23.4972 33.6816 23.7518 33.5027 24.0189 33.3224C31.7221 28.0725 41.0427 25 51.0615 25C52.9235 25 54.7585 25.1063 56.5704 25.3132C57.0849 25.3714 57.5936 25.4383 58.0991 25.5137C69.3298 27.1649 79.2888 32.6897 86.573 40.6771C86.9554 41.0953 87.3545 41.5435 87.7532 42.0178C92.1553 47.216 95.4769 53.3646 97.3586 60.1262C97.5007 60.6274 97.6315 61.1282 97.7514 61.6193C98.6486 65.292 99.123 69.1263 99.123 73.0615C99.123 87.1152 93.0836 99.7638 83.4807 108.543L83.4707 108.552C83.3095 108.7 83.0845 108.906 82.8401 109.118C75.326 115.747 65.7094 120.068 55.1174 120.953C54.5706 121 54.0317 121.034 53.5057 121.06C52.6881 121.103 51.8755 121.123 51.0665 121.123C34.7558 121.123 20.3505 112.993 11.6708 100.598C11.3676 100.166 11.0725 99.7291 10.7879 99.292C5.85866 91.7436 3 82.7266 3 73.0615C3 66.0002 4.5258 59.2815 7.27191 53.2258C7.27226 53.225 7.2726 53.2242 7.27295 53.2234M12.9823 55.8122C10.5969 61.0717 9.26889 66.91 9.26889 73.0615C9.26889 81.4757 11.7545 89.3085 16.0393 95.8684C16.2874 96.2493 16.5429 96.6276 16.8035 96.9985C24.3607 107.793 36.8867 114.854 51.0665 114.854C51.7781 114.854 52.4847 114.837 53.1888 114.799C53.6574 114.776 54.126 114.746 54.592 114.706C63.808 113.937 72.1746 110.176 78.7169 104.395C78.8974 104.24 79.0728 104.08 79.2507 103.917C87.6097 96.2743 92.8541 85.2818 92.8541 73.0615C92.8541 69.6312 92.4407 66.2961 91.6614 63.1063C91.5562 62.6754 91.4434 62.2444 91.3231 61.8209C89.6894 55.9425 86.8003 50.5904 82.9616 46.0601C82.6334 45.6692 82.2926 45.2858 81.9443 44.9049C75.6024 37.9491 66.9401 33.1482 57.1804 31.7149C56.7444 31.6498 56.3059 31.5921 55.8624 31.542C54.2838 31.3616 52.6852 31.2689 51.0615 31.2689C42.3366 31.2689 34.2357 33.9425 27.538 38.5104C27.3225 38.6557 27.112 38.8035 26.904 38.9539C21.2712 42.9505 16.6732 48.3102 13.5837 54.5444C13.3782 54.9603 13.1753 55.3863 12.9823 55.8122ZM7.96317 51.768C7.73201 52.2359 7.49886 52.7248 7.27321 53.2229L7.96317 51.768Z" fill="white"/>
<path d="M55.7523 57.0125C59.6612 54.404 63.3421 52.3719 66.7774 50.7958C73.3023 57.4109 81.9795 61.8986 91.659 63.1063C91.5538 62.6753 91.441 62.2469 91.3208 61.8209C82.2802 60.5781 74.1642 56.3935 67.9751 50.2596C73.7332 47.7564 78.7672 46.5411 82.9592 46.06C82.631 45.6691 82.2902 45.2858 81.9419 44.9049C77.0859 45.5439 72.092 47.0047 67.0004 49.2648C62.3974 44.3812 58.9671 38.3801 57.1756 31.7149C56.7396 31.6497 56.2986 31.5921 55.8576 31.542C57.6316 38.4627 61.112 44.707 65.8227 49.7985C63.5526 50.8585 61.2599 52.0787 58.9546 53.4544C57.5815 54.2737 56.2033 55.1507 54.8177 56.0828C53.1915 54.4867 51.4976 52.9557 49.7361 51.4924C37.9819 41.7352 27.1898 38.3976 27.0821 38.365L26.7263 39.5427C26.8315 39.5753 37.4256 42.8603 48.9969 52.4771C50.6532 53.8553 52.2519 55.2961 53.7878 56.7945C50.4377 59.1072 47.0651 61.7407 43.6849 64.6799C36.263 58.3154 26.631 54.4692 16.1146 54.4692C15.2627 54.4692 14.4208 54.4942 13.5813 54.5468C13.3759 54.9653 13.1729 55.3888 12.98 55.8147C14.0123 55.7371 15.0597 55.697 16.1146 55.697C26.2652 55.697 35.5664 59.3879 42.7552 65.4993C40.7181 67.3009 38.6835 69.2152 36.6488 71.2323C25.6212 82.1873 17.9137 93.1096 16.0319 95.8659C16.28 96.2467 16.5356 96.6251 16.7962 96.9959C17.9663 95.2545 25.8894 83.7032 37.5609 72.1168C39.6532 70.0371 41.7054 68.1152 43.7149 66.3437C52.0489 73.8808 57.2908 84.7756 57.2908 96.8732C57.2908 103.295 55.8125 109.377 53.1815 114.796C53.6525 114.774 54.1186 114.744 54.5847 114.704C57.1079 109.279 58.5186 103.238 58.5186 96.8707C58.5186 84.4649 53.1664 73.287 44.6445 65.5268C48.1425 62.4949 51.5001 59.909 54.7099 57.709C59.0849 62.1166 62.9387 67.0177 66.2161 72.3499C72.0143 81.7863 76.0134 92.6035 78.1007 104.501L79.3109 104.288C77.1936 92.2226 73.1319 81.2501 67.241 71.6733C63.961 66.3412 60.1097 61.4325 55.7473 57.0074L55.7523 57.0125Z" fill="#69283A"/>
</g>
<g filter="url(#filter1_d_260_3600)">
<path d="M365.193 51.345L319.569 41.5908C316.411 40.9156 313.301 42.9374 312.624 46.1068L298.595 111.723C297.918 114.893 299.929 118.009 303.087 118.684L348.711 128.439C351.869 129.114 354.979 127.092 355.657 123.923L369.685 58.3063C370.363 55.1369 368.352 52.0203 365.193 51.345Z" fill="#2F2F2F"/>
<path fill-rule="evenodd" clip-rule="evenodd" d="M320.867 35.5205L366.491 45.2747C373.022 46.6709 377.146 53.102 375.756 59.6041L361.727 125.221C360.337 131.723 353.944 135.905 347.413 134.509L301.789 124.755C295.259 123.359 291.135 116.927 292.525 110.425L306.553 44.809C307.944 38.3068 314.337 34.1242 320.867 35.5205ZM319.569 41.5908L365.193 51.345C368.352 52.0203 370.363 55.137 369.685 58.3063L355.657 123.923C354.979 127.092 351.869 129.114 348.711 128.439L303.087 118.684C299.929 118.009 297.918 114.893 298.595 111.723L312.624 46.1068C313.301 42.9374 316.411 40.9156 319.569 41.5908Z" fill="white"/>
<path d="M365.324 59.0536L316.298 48.5722C315.546 48.4114 314.806 48.8929 314.644 49.6477L302.392 106.955C302.231 107.71 302.71 108.452 303.462 108.613L352.487 119.094C353.239 119.255 353.98 118.773 354.141 118.019L366.393 60.7114C366.555 59.9566 366.076 59.2144 365.324 59.0536Z" fill="#52A5FF"/>
<path d="M349.505 50.8698L334.08 47.5719C333.7 47.4907 333.326 47.7335 333.244 48.1144C333.163 48.4953 333.405 48.8699 333.785 48.9511L349.21 52.249C349.59 52.3303 349.964 52.0874 350.046 51.7065C350.127 51.3257 349.885 50.9511 349.505 50.8698Z" fill="#737373"/>
<path d="M326.419 121.132C327.821 121.432 329.201 120.535 329.502 119.128C329.803 117.721 328.91 116.338 327.508 116.038C326.106 115.738 324.726 116.636 324.425 118.042C324.124 119.449 325.017 120.833 326.419 121.132Z" fill="#737373"/>
</g>
<g filter="url(#filter2_d_260_3600)">
<path d="M110.946 259.864L98.079 241.419C91.8375 232.47 78.8225 235.209 75.5015 241.947L72.3469 248.348L49.9296 256.859L43.3252 254.163C36.6289 251.436 24.8005 257.793 26.0862 268.752L28.7052 291.087C29.4616 297.551 34.891 302.453 41.396 302.546C45.8149 302.608 49.9582 300.415 52.393 296.731L58.2714 287.834L86.6671 277.053L96.9686 279.807C101.235 280.948 105.789 279.836 109.053 276.86C113.859 272.475 114.669 265.202 110.946 259.864Z" fill="#2F2F2F"/>
<path fill-rule="evenodd" clip-rule="evenodd" d="M75.5011 241.947C78.8221 235.209 91.8371 232.47 98.0786 241.419L110.946 259.864C114.668 265.202 113.859 272.475 109.052 276.86C105.789 279.836 101.235 280.948 96.9682 279.807L86.6667 277.053L58.271 287.834L52.3926 296.73C49.9578 300.415 45.8145 302.608 41.3956 302.546C34.8906 302.453 29.4612 297.551 28.7047 291.087L26.0857 268.751C24.8001 257.793 36.6284 251.435 43.3248 254.162L49.9292 256.859L72.3465 248.348L75.5011 241.947ZM69.4463 245.158L71.9029 240.173C74.345 235.218 79.9041 232.303 85.3281 231.805C90.9578 231.289 97.2864 233.271 101.369 239.124L114.236 257.568L114.236 257.569C119.109 264.558 118.051 274.08 111.756 279.823L111.755 279.824C107.483 283.72 101.52 285.176 95.9324 283.683L86.8807 281.263L60.9045 291.125L55.7395 298.942C52.5513 303.767 47.1257 306.638 41.3396 306.557L41.3383 306.557C32.8195 306.435 25.7113 300.016 24.7206 291.554M24.7205 291.553L22.1016 269.219C22.1016 269.219 22.1016 269.219 22.1016 269.219C21.2591 262.037 24.7781 256.377 29.3668 253.07C33.7637 249.902 39.8492 248.416 44.8378 250.447L49.9825 252.548L69.4463 245.158" fill="white"/>
<path d="M99.8388 254.067C102.095 260.009 99.108 266.657 93.1674 268.913C87.2267 271.168 80.5804 268.177 78.3244 262.235C76.0684 256.292 79.0558 249.646 84.9965 247.391C90.9371 245.135 97.5828 248.124 99.8388 254.067Z" fill="#FFFCF2"/>
<path d="M89.2924 253.606C88.6617 255.013 87.0052 255.641 85.5982 255.009C84.1875 254.377 83.5591 252.722 84.1952 251.313C84.8264 249.902 86.4829 249.274 87.8895 249.911C89.3001 250.542 89.9285 252.197 89.2924 253.606Z" fill="#FD618C"/>
<path d="M97.4363 257.268C96.8074 258.674 95.1491 259.303 93.7421 258.67C92.335 258.037 91.7066 256.382 92.3385 254.973C92.9717 253.568 94.6263 252.94 96.0327 253.571C97.4441 254.204 98.0724 255.859 97.4363 257.268Z" fill="#F7543E"/>
<path d="M85.8246 261.328C85.1928 262.737 83.5374 263.364 82.1304 262.731C80.7197 262.099 80.0914 260.444 80.7275 259.035C81.3586 257.625 83.0133 256.996 84.4217 257.633C85.8288 258.266 86.4578 259.923 85.8246 261.328Z" fill="#52A5FF"/>
<path d="M93.9667 264.99C93.3355 266.401 91.6791 267.03 90.2724 266.393C88.8618 265.761 88.2334 264.106 88.8695 262.698C89.5002 261.291 91.1567 260.662 92.5638 261.295C93.9708 261.928 94.5992 263.583 93.9667 264.99Z" fill="#59FFCF"/>
<path d="M70.727 259.541C69.1389 260.144 67.9419 261.848 68.7336 263.933L70.1399 267.637C70.9315 269.722 72.9594 270.202 74.5493 269.598C76.1393 268.995 77.3272 267.294 76.5356 265.209L75.1292 261.505C74.3376 259.42 72.3151 258.938 70.727 259.541Z" fill="#FF5122"/>
<path d="M54.677 271.212C56.933 277.154 53.9462 283.803 48.0056 286.058C42.0649 288.313 35.4222 285.321 33.1662 279.379C30.9102 273.437 33.894 266.791 39.8347 264.536C45.7753 262.281 52.421 265.27 54.677 271.212Z" fill="#FFFCF2"/>
<path d="M49.4489 280.862C49.7084 281.546 49.3678 282.307 48.6879 282.565L45.1789 283.897C44.4955 284.157 43.7354 283.813 43.4759 283.13L38.3901 269.734C38.1306 269.05 38.4713 268.289 39.1547 268.03L42.6637 266.697C43.3436 266.439 44.1036 266.783 44.3632 267.466L49.4489 280.862Z" fill="#2F2F2F"/>
<path d="M38.3581 280.827C37.6746 281.086 36.9146 280.743 36.6564 280.063L35.3238 276.553C35.0656 275.873 35.4063 275.111 36.0898 274.852L49.4819 269.768C50.1653 269.508 50.9236 269.852 51.1818 270.532L52.5143 274.042C52.7725 274.722 52.4318 275.483 51.7502 275.742L38.3581 280.827Z" fill="#2F2F2F"/>
<path d="M47.6623 273.875C48.4485 275.946 47.4056 278.256 45.3409 279.04C43.2761 279.824 40.9622 278.786 40.1767 276.717C39.3913 274.648 40.4298 272.337 42.4982 271.552C44.5665 270.767 46.8776 271.808 47.6623 273.875Z" fill="#52A5FF"/>
<path d="M58.5742 264.154C56.986 264.757 55.7891 266.461 56.5807 268.546L57.987 272.251C58.7787 274.336 60.8066 274.815 62.3965 274.212C63.9864 273.608 65.1744 271.907 64.3827 269.822L62.9764 266.118C62.1848 264.033 60.1605 263.552 58.5742 264.154Z" fill="#FF5122"/>
</g>
<g filter="url(#filter3_d_260_3600)">
<path fill-rule="evenodd" clip-rule="evenodd" d="M354.034 299.847C354.499 299.431 354.87 298.911 355.113 298.321C355.546 297.268 355.53 296.083 355.069 295.041L327.376 232.488C326.469 230.441 324.111 229.472 322.027 230.29L263.472 253.285C262.278 253.74 261.332 254.73 260.954 255.999L260.464 257.646C260.464 257.646 260.464 257.647 260.464 257.647C259.683 260.264 259.896 263.069 261.046 265.534L285.753 321.794C285.769 321.831 285.786 321.867 285.803 321.904C285.856 322.015 285.912 322.126 285.972 322.234L286.906 324.371C286.924 324.412 286.943 324.453 286.962 324.494C288.437 327.59 292.059 329.016 295.248 327.762C295.249 327.762 295.25 327.762 295.251 327.761L351.797 305.553C352.871 305.131 353.724 304.283 354.151 303.211C354.579 302.138 354.544 300.937 354.055 299.891L354.034 299.847ZM351.247 296.733L349.885 297.268L349.234 299.45L350.269 301.663L293.721 323.872C292.571 324.325 291.265 323.809 290.736 322.697L289.701 320.328C289.656 320.261 289.616 320.19 289.579 320.113L265.015 264.177L264.851 263.804C264.504 263.073 264.29 262.293 264.212 261.501C264.212 261.501 264.212 261.501 264.212 261.501C264.125 260.614 264.209 259.71 264.469 258.841L264.96 257.191L268.853 255.662L323.554 234.18L351.247 296.733Z" fill="white"/>
<path d="M350.269 301.663L293.72 323.872C292.571 324.325 291.265 323.809 290.735 322.697L267.585 269.713C265.632 265.601 267.578 260.705 271.83 259.033L321.227 239.594L350.269 301.663Z" fill="#A45C54"/>
<path d="M264.469 258.841L264.96 257.191L292.652 319.744L292.612 319.884C292.186 321.309 290.217 321.459 289.579 320.113L264.851 263.805C264.116 262.254 263.978 260.487 264.469 258.841Z" fill="#A45C54"/>
<path d="M291.715 321.707C292.016 320.701 292.763 319.888 293.745 319.501L349.9 297.217L348.647 301.419L293.483 323.314C292.451 323.721 291.401 322.765 291.715 321.704V321.707Z" fill="white"/>
<path d="M351.247 296.733L292.655 319.746L264.96 257.191L323.554 234.18L351.247 296.733Z" fill="#A45C54"/>
<path d="M276.105 257.9L317.05 241.82C318.109 244.053 320.732 245.084 323.041 244.177L342.632 289.665C340.099 290.66 338.938 293.575 340.102 296.024L299.157 312.105C298.097 309.872 295.475 308.841 293.166 309.748L273.575 264.259C276.108 263.264 277.268 260.349 276.105 257.9Z" stroke="#6D1318" stroke-width="1.8" stroke-linecap="round" stroke-linejoin="round"/>
<path d="M264.96 257.191L292.141 319.058L350.758 295.831" stroke="#6D1318" stroke-width="1.8" stroke-linecap="round" stroke-linejoin="round"/>
<path d="M274.141 260.516C274.118 261.286 273.471 261.891 272.697 261.866C271.923 261.844 271.314 261.2 271.339 260.43C271.364 259.661 272.009 259.055 272.783 259.08C273.557 259.102 274.166 259.746 274.141 260.516Z" stroke="#6D1318" stroke-width="1.8" stroke-linecap="round" stroke-linejoin="round"/>
<path d="M322.511 241.028C322.488 241.797 321.841 242.403 321.067 242.378C320.293 242.356 319.684 241.712 319.709 240.942C319.732 240.172 320.379 239.567 321.153 239.592C321.927 239.614 322.536 240.258 322.511 241.028Z" stroke="#6D1318" stroke-width="1.8" stroke-linecap="round" stroke-linejoin="round"/>
<path d="M296.721 313.005C296.699 313.774 296.051 314.38 295.278 314.355C294.504 314.333 293.895 313.689 293.92 312.919C293.942 312.149 294.59 311.544 295.363 311.569C296.137 311.593 296.746 312.235 296.721 313.005Z" stroke="#6D1318" stroke-width="1.8" stroke-linecap="round" stroke-linejoin="round"/>
<path d="M345.089 293.516C345.066 294.286 344.419 294.892 343.645 294.867C342.871 294.844 342.262 294.201 342.287 293.431C342.31 292.661 342.957 292.056 343.731 292.08C344.505 292.103 345.114 292.747 345.089 293.516Z" stroke="#6D1318" stroke-width="1.8" stroke-linecap="round" stroke-linejoin="round"/>
</g>
<defs>
<filter id="filter0_d_260_3600" x="0" y="25" width="102.123" height="107.123" filterUnits="userSpaceOnUse" color-interpolation-filters="sRGB">
<feFlood flood-opacity="0" result="BackgroundImageFix"/>
<feColorMatrix in="SourceAlpha" type="matrix" values="0 0 0 0 0 0 0 0 0 0 0 0 0 0 0 0 0 0 127 0" result="hardAlpha"/>
<feOffset dy="8"/>
<feGaussianBlur stdDeviation="1.5"/>
<feComposite in2="hardAlpha" operator="out"/>
<feColorMatrix type="matrix" values="0 0 0 0 0 0 0 0 0 0 0 0 0 0 0 0 0 0 0.05 0"/>
<feBlend mode="normal" in2="BackgroundImageFix" result="effect1_dropShadow_260_3600"/>
<feBlend mode="normal" in="SourceGraphic" in2="effect1_dropShadow_260_3600" result="shape"/>
</filter>
<filter id="filter1_d_260_3600" x="289.255" y="35.2517" width="89.7695" height="110.526" filterUnits="userSpaceOnUse" color-interpolation-filters="sRGB">
<feFlood flood-opacity="0" result="BackgroundImageFix"/>
<feColorMatrix in="SourceAlpha" type="matrix" values="0 0 0 0 0 0 0 0 0 0 0 0 0 0 0 0 0 0 127 0" result="hardAlpha"/>
<feOffset dy="8"/>
<feGaussianBlur stdDeviation="1.5"/>
<feComposite in2="hardAlpha" operator="out"/>
<feColorMatrix type="matrix" values="0 0 0 0 0 0 0 0 0 0 0 0 0 0 0 0 0 0 0.05 0"/>
<feBlend mode="normal" in2="BackgroundImageFix" result="effect1_dropShadow_260_3600"/>
<feBlend mode="normal" in="SourceGraphic" in2="effect1_dropShadow_260_3600" result="shape"/>
</filter>
<filter id="filter2_d_260_3600" x="18.9766" y="231.727" width="101.312" height="85.832" filterUnits="userSpaceOnUse" color-interpolation-filters="sRGB">
<feFlood flood-opacity="0" result="BackgroundImageFix"/>
<feColorMatrix in="SourceAlpha" type="matrix" values="0 0 0 0 0 0 0 0 0 0 0 0 0 0 0 0 0 0 127 0" result="hardAlpha"/>
<feOffset dy="8"/>
<feGaussianBlur stdDeviation="1.5"/>
<feComposite in2="hardAlpha" operator="out"/>
<feColorMatrix type="matrix" values="0 0 0 0 0 0 0 0 0 0 0 0 0 0 0 0 0 0 0.05 0"/>
<feBlend mode="normal" in2="BackgroundImageFix" result="effect1_dropShadow_260_3600"/>
<feBlend mode="normal" in="SourceGraphic" in2="effect1_dropShadow_260_3600" result="shape"/>
</filter>
<filter id="filter3_d_260_3600" x="257" y="230" width="101.426" height="109.216" filterUnits="userSpaceOnUse" color-interpolation-filters="sRGB">
<feFlood flood-opacity="0" result="BackgroundImageFix"/>
<feColorMatrix in="SourceAlpha" type="matrix" values="0 0 0 0 0 0 0 0 0 0 0 0 0 0 0 0 0 0 127 0" result="hardAlpha"/>
<feOffset dy="8"/>
<feGaussianBlur stdDeviation="1.5"/>
<feComposite in2="hardAlpha" operator="out"/>
<feColorMatrix type="matrix" values="0 0 0 0 0 0 0 0 0 0 0 0 0 0 0 0 0 0 0.05 0"/>
<feBlend mode="normal" in2="BackgroundImageFix" result="effect1_dropShadow_260_3600"/>
<feBlend mode="normal" in="SourceGraphic" in2="effect1_dropShadow_260_3600" result="shape"/>
</filter>
</defs>
</svg>
