<svg width="271" height="174" viewBox="0 0 271 174" fill="none" xmlns="http://www.w3.org/2000/svg">
<path d="M117.986 26.5491L63.0101 18.306C55.9756 17.2512 49.4197 22.1107 48.3671 29.1599L40.9773 78.6503C39.9247 85.6995 44.774 92.2691 51.8086 93.3239L106.784 101.567C113.819 102.622 120.375 97.7623 121.427 90.7131L128.817 41.2226C129.87 34.1734 125.02 27.6039 117.986 26.5491Z" fill="#FBBF05"/>
<path d="M100.873 65.747C101.546 61.2395 98.43 57.0365 93.9135 56.3593C89.397 55.6821 85.19 58.7871 84.517 63.2946C83.844 67.8021 86.9597 72.0051 91.4762 72.6823C95.9926 73.3595 100.2 70.2545 100.873 65.747Z" fill="white"/>
<path d="M84.8433 63.3414C85.5164 58.834 82.4006 54.6309 77.8842 53.9537C73.3677 53.2765 69.1608 56.3816 68.4877 60.889C67.8147 65.3965 70.9304 69.5995 75.4468 70.2767C79.9633 70.9539 84.1703 67.8489 84.8433 63.3414Z" fill="white"/>
<path d="M97.3997 65.4199C97.8035 62.7157 95.9337 60.1942 93.2235 59.7878C90.5133 59.3815 87.9889 61.2441 87.5851 63.9483C87.1813 66.6524 89.0511 69.174 91.7613 69.5804C94.4715 69.9868 96.9959 68.124 97.3997 65.4199Z" fill="black"/>
<path d="M81.2913 63.0056C81.6951 60.3015 79.8253 57.7799 77.1151 57.3735C74.4049 56.9671 71.8805 58.8298 71.4767 61.534C71.0729 64.2381 72.9427 66.7597 75.6529 67.1661C78.3631 67.5725 80.8875 65.7098 81.2913 63.0056Z" fill="black"/>
<path d="M110.441 193.435C109.74 188.659 105.458 179.708 91.0339 178.105C97.2653 160.797 97.8496 145.696 97.8496 145.696L77.3136 143.547C77.2065 157.888 76.1511 195.986 76.1511 195.986C76.0318 197.108 76.8976 198.089 78.0233 198.107L105.861 198.576C108.636 198.622 110.845 196.182 110.444 193.429L110.441 193.435Z" fill="#FFEAB0"/>
<path d="M73.8293 140.068L49.3501 141.576C49.3501 141.576 46.8875 157.829 50.6135 175.686C34.1982 174.104 23.9103 187.933 22.4634 192.822C21.6741 195.489 23.5126 198.221 26.2659 198.57H58.0993C59.2158 198.711 59.8644 196.875 60.2529 195.345C60.2529 195.345 72.3518 153.774 73.8293 140.068Z" fill="#FFEAB0"/>
<path fill-rule="evenodd" clip-rule="evenodd" d="M19.3365 64.4771C23.8821 63.1918 28.6068 65.8424 29.8894 70.3974C33.8014 84.2896 42.9289 93.0228 51.4729 98.4161C55.7423 101.111 59.7691 102.904 62.7098 104.014C64.1735 104.567 65.3491 104.944 66.1263 105.175C66.5143 105.29 66.8012 105.368 66.973 105.414C67.0589 105.436 67.1158 105.451 67.142 105.457C67.1479 105.459 67.1523 105.46 67.155 105.46C71.738 106.548 74.5832 111.146 73.5127 115.746C72.4401 120.355 67.8418 123.22 63.2421 122.145L65.1844 113.799C63.2421 122.145 63.2385 122.144 63.2348 122.143L63.2266 122.141L63.2079 122.137L63.1611 122.126C63.1387 122.12 63.1131 122.114 63.0842 122.107C63.0672 122.103 63.0491 122.099 63.0299 122.094C62.9261 122.068 62.7898 122.033 62.6228 121.989C62.289 121.901 61.8318 121.776 61.2662 121.608C60.1361 121.272 58.5662 120.766 56.6772 120.052C52.9123 118.63 47.8044 116.357 42.3568 112.918C31.4669 106.044 18.8317 94.2396 13.4286 75.052C12.1459 70.497 14.791 65.7624 19.3365 64.4771ZM67.1401 105.457L67.139 105.457L67.1365 105.456C67.1377 105.456 67.1389 105.457 67.1401 105.457Z" fill="#EA9B0E"/>
<path d="M18.2692 83.6961C28.3589 83.6961 36.5383 75.4997 36.5383 65.3889C36.5383 55.2781 28.3589 47.0817 18.2692 47.0817C8.17938 47.0817 0 55.2781 0 65.3889C0 75.4997 8.17938 83.6961 18.2692 83.6961Z" fill="#FBBF05"/>
<path fill-rule="evenodd" clip-rule="evenodd" d="M107.634 120.602C107.638 120.602 107.643 120.602 107.649 120.602C107.698 120.602 107.811 120.604 107.979 120.612C108.319 120.629 108.861 120.671 109.53 120.774C110.914 120.987 112.581 121.42 114.101 122.225C115.558 122.997 116.794 124.057 117.672 125.606C118.545 127.149 119.41 129.783 119.143 134.276C118.862 139.001 122.456 143.059 127.171 143.34C131.885 143.622 135.935 140.02 136.216 135.296C136.643 128.108 135.329 122.058 132.545 117.144C129.764 112.236 125.861 109.068 122.094 107.073C118.389 105.11 114.744 104.236 112.123 103.833C110.789 103.628 109.654 103.535 108.819 103.494C108.399 103.473 108.05 103.465 107.783 103.463C107.649 103.462 107.535 103.463 107.443 103.464C107.397 103.464 107.357 103.465 107.322 103.465C107.304 103.466 107.288 103.466 107.273 103.466L107.252 103.467L107.242 103.467C107.237 103.467 107.233 103.467 107.474 112.034L107.233 103.467C102.512 103.601 98.7922 107.544 98.9253 112.275C99.0577 116.979 102.949 120.691 107.634 120.602Z" fill="#EA9B0E"/>
<path d="M129.433 158.13C139.07 158.13 146.882 150.301 146.882 140.644C146.882 130.987 139.07 123.158 129.433 123.158C119.796 123.158 111.983 130.987 111.983 140.644C111.983 150.301 119.796 158.13 129.433 158.13Z" fill="#FBBF05"/>
<path d="M101.293 67.7535L67.7153 62.2676L65.9781 72.9448L99.5555 78.4307L101.293 67.7535Z" fill="#FBBF05"/>
<path opacity="0.41" d="M97.2409 83.5183C101.539 83.5183 105.023 80.0267 105.023 75.7196C105.023 71.4125 101.539 67.921 97.2409 67.921C92.9428 67.921 89.4585 71.4125 89.4585 75.7196C89.4585 80.0267 92.9428 83.5183 97.2409 83.5183Z" fill="#EE8A2E"/>
<path opacity="0.41" d="M68.0017 79.1346C72.2998 79.1346 75.7841 75.643 75.7841 71.336C75.7841 67.0289 72.2998 63.5373 68.0017 63.5373C63.7036 63.5373 60.2192 67.0289 60.2192 71.336C60.2192 75.643 63.7036 79.1346 68.0017 79.1346Z" fill="#EE8A2E"/>
<path fill-rule="evenodd" clip-rule="evenodd" d="M75.8666 72.8803C74.7723 74.1971 76.1709 75.4184 76.1716 75.4189L76.173 75.4201L76.1762 75.4227L76.1838 75.4291C76.1895 75.4338 76.1965 75.4394 76.2046 75.446C76.2208 75.4591 76.2417 75.4758 76.2674 75.4959C76.3187 75.536 76.3887 75.5894 76.4768 75.6535C76.6528 75.7815 76.9018 75.9529 77.2177 76.1461C77.8478 76.5314 78.7552 77.0099 79.89 77.4016C82.1721 78.1891 85.3893 78.6266 89.0568 77.2366C89.9402 76.9018 90.3855 75.9128 90.0514 75.0276C89.7173 74.1424 88.7303 73.6962 87.8469 74.031C85.0842 75.0781 82.7078 74.7492 81.0037 74.1611C80.1455 73.865 79.4618 73.5034 78.999 73.2204C78.7686 73.0795 78.5957 72.9598 78.4864 72.8803C78.4318 72.8406 78.3934 72.8111 78.3718 72.7943C78.3611 72.7859 78.3546 72.7806 78.3524 72.7788C78.3513 72.7779 78.3513 72.778 78.3524 72.7788L78.3548 72.7809L78.3567 72.7824L78.3578 72.7833C78.3583 72.7838 76.9589 71.566 75.8666 72.8803Z" fill="#C65A17"/>
<path d="M114.766 136.595C111.716 157.017 92.5111 149.92 70.6076 146.637C48.7042 143.354 32.4021 145.126 35.452 124.703C38.502 104.281 58.729 90.3881 80.6324 93.6713C102.536 96.9544 117.819 116.172 114.769 136.595H114.766Z" fill="#EA9B0E"/>
<path d="M108.174 140.598C110.313 173.727 136.478 177.684 168.014 175.437C199.551 173.19 224.513 165.585 222.375 132.459C220.237 99.33 192.937 74.297 161.4 76.5441C129.864 78.7911 106.036 107.469 108.174 140.598Z" fill="#98487E"/>
<path d="M133.275 86.8259L190.591 82.7396C197.923 82.2184 203.467 75.5479 202.968 67.8443L199.474 13.7502C198.976 6.04662 192.628 0.225211 185.295 0.749413L127.979 4.83574C120.647 5.35688 115.103 12.0274 115.602 19.7311L119.096 73.8251C119.594 81.5287 125.942 87.3501 133.275 86.8259Z" fill="#C48BDA"/>
<path d="M160.121 53.3073C160.151 48.6228 156.545 44.8024 152.068 44.7742C147.591 44.746 143.938 48.5207 143.908 53.2053C143.879 57.8898 147.484 61.7102 151.962 61.7384C156.439 61.7666 160.092 57.9919 160.121 53.3073Z" fill="white"/>
<path d="M175.972 52.1785C176.002 47.494 172.396 43.6736 167.919 43.6454C163.442 43.6172 159.789 47.3919 159.759 52.0765C159.73 56.761 163.335 60.5814 167.813 60.6096C172.29 60.6378 175.943 56.8631 175.972 52.1785Z" fill="white"/>
<path d="M157.061 52.7039C157.078 49.8935 154.915 47.6015 152.229 47.5846C149.542 47.5677 147.35 49.8322 147.333 52.6426C147.315 55.453 149.478 57.745 152.165 57.7619C154.851 57.7788 157.043 55.5143 157.061 52.7039Z" fill="black"/>
<path d="M172.992 51.569C173.009 48.7586 170.846 46.4666 168.16 46.4497C165.473 46.4328 163.281 48.6973 163.264 51.5077C163.246 54.3181 165.41 56.6101 168.096 56.627C170.782 56.6439 172.974 54.3794 172.992 51.569Z" fill="black"/>
<path fill-rule="evenodd" clip-rule="evenodd" d="M171.505 63.2551C172.042 64.0139 171.864 65.0654 171.107 65.6037L170.134 64.2299C171.107 65.6037 171.106 65.6042 171.105 65.6047L171.104 65.6057L171.101 65.6081L171.093 65.6137C171.087 65.6178 171.079 65.6228 171.071 65.6286C171.054 65.6402 171.032 65.655 171.006 65.6728C170.952 65.7082 170.88 65.7552 170.789 65.8114C170.606 65.9236 170.349 66.0728 170.025 66.2382C169.378 66.5682 168.453 66.9687 167.312 67.2664C165.018 67.865 161.836 68.0486 158.361 66.399C157.523 66.0006 157.165 64.9961 157.562 64.1554C157.96 63.3147 158.962 62.9561 159.801 63.3545C162.409 64.5926 164.753 64.4528 166.465 64.0061C167.327 63.7811 168.024 63.4784 168.5 63.2359C168.736 63.1151 168.915 63.0107 169.028 62.9409C169.085 62.9061 169.125 62.88 169.148 62.8651C169.159 62.8576 169.166 62.8529 169.168 62.8513L169.164 62.8544L169.162 62.8552C169.164 62.8539 169.166 62.8526 169.168 62.8513C169.169 62.8505 169.169 62.8505 169.168 62.8513C169.925 62.3188 170.969 62.4987 171.505 63.2551Z" fill="#6D2860"/>
<path d="M160.106 52.6852C159.803 48.0133 155.94 44.4819 151.473 44.8007C147.007 45.1195 143.63 49.166 143.932 53.8378" fill="#A2528F"/>
<path d="M175.959 51.554C175.656 46.8822 171.792 43.3507 167.326 43.6695C162.859 43.9883 159.482 48.0348 159.785 52.7067" fill="#A2528F"/>
<path d="M182.468 0.951668C182.468 0.951668 183.784 45.2207 117.566 49.9385L115.684 20.8192C114.84 11.4541 120.934 5.28017 128.634 4.68546L182.468 0.948608V0.951668Z" fill="#6D2860"/>
<path d="M168.47 1.94792C168.47 1.94792 182.558 45.3065 201.751 43.9393L199.869 14.82C199.502 5.42115 192.671 0.169924 184.962 0.672667L168.467 1.95099L168.47 1.94792Z" fill="#6D2860"/>
<path d="M239.308 187.246C239.031 184.284 236.676 178.636 227.845 177.186C232.232 166.732 233.073 157.452 233.073 157.452L220.497 155.472C219.974 164.297 218.111 187.716 218.111 187.716C218.003 188.401 218.503 189.035 219.196 189.082L236.32 190.265C238.027 190.384 239.465 188.95 239.305 187.243L239.308 187.246Z" fill="#FFEAB0"/>
<path d="M222.209 154.992L209.134 156.247C209.134 156.247 209.638 165.654 213.046 176.368C202.878 176.433 199.717 182.291 199.133 185.382C198.817 187.067 200.117 188.625 201.827 188.668L218.987 189.078C219.681 189.095 220.238 188.51 220.193 187.818C220.193 187.818 222.163 163.493 222.209 154.992Z" fill="#FFEAB0"/>
<path d="M255.191 158.245C257.104 177.538 237.983 175.499 217.283 177.553C196.584 179.604 182.144 184.971 180.228 165.679C178.315 146.386 193.543 129.079 214.243 127.028C234.942 124.978 253.274 138.952 255.187 158.248L255.191 158.245Z" fill="#429CF7"/>
<path d="M233.901 61.3209L181.945 66.4779C175.298 67.1377 170.445 73.0744 171.105 79.738L175.744 126.526C176.405 133.189 182.329 138.056 188.977 137.397L240.932 132.24C247.579 131.58 252.432 125.643 251.772 118.98L247.133 72.1917C246.472 65.5281 240.548 60.6611 233.901 61.3209Z" fill="#FBBF05"/>
<path opacity="0.41" d="M226.568 122.117C230.602 122.305 234.023 119.181 234.209 115.141C234.396 111.1 231.276 107.671 227.243 107.483C223.209 107.295 219.788 110.419 219.601 114.46C219.415 118.501 222.534 121.929 226.568 122.117Z" fill="#EE8A2E"/>
<path opacity="0.41" d="M198.935 124.866C202.968 125.054 206.39 121.931 206.576 117.89C206.762 113.849 203.643 110.421 199.609 110.233C195.575 110.045 192.154 113.168 191.968 117.209C191.781 121.25 194.901 124.678 198.935 124.866Z" fill="#EE8A2E"/>
<path d="M220.316 110.753C224.584 110.33 227.702 106.532 227.279 102.272C226.857 98.0119 223.054 94.9017 218.786 95.3254C214.517 95.7491 211.4 99.5462 211.822 103.806C212.244 108.067 216.047 111.177 220.316 110.753Z" fill="white"/>
<path d="M205.167 112.264C209.435 111.84 212.553 108.043 212.131 103.783C211.708 99.5225 207.905 96.4123 203.637 96.836C199.368 97.2596 196.251 101.057 196.673 105.317C197.095 109.577 200.898 112.687 205.167 112.264Z" fill="white"/>
<path d="M219.999 107.401C222.56 107.147 224.43 104.868 224.176 102.312C223.923 99.7554 221.642 97.889 219.081 98.1431C216.521 98.3973 214.651 100.676 214.904 103.232C215.158 105.789 217.439 107.655 219.999 107.401Z" fill="black"/>
<path d="M204.772 108.916C207.333 108.662 209.203 106.383 208.949 103.827C208.696 101.27 206.415 99.4039 203.854 99.658C201.294 99.9121 199.424 102.191 199.677 104.747C199.931 107.304 202.212 109.17 204.772 108.916Z" fill="black"/>
<path d="M217.013 108.631C216.58 108.666 216.172 108.807 215.8 109.032C214.776 109.65 213.665 110.046 212.515 110.143C211.19 110.305 209.869 110.145 208.594 109.629C208.188 109.469 207.762 109.397 207.329 109.432C205.078 109.618 203.489 112.603 203.778 116.098C204.121 120.032 206.726 123.254 209.591 121.691C210.615 121.073 211.726 120.677 212.876 120.581C214.2 120.418 215.522 120.578 216.797 121.095C217.203 121.255 217.629 121.327 218.062 121.292C223.431 120.545 222.437 108.488 217.016 108.632L217.013 108.631Z" fill="#F7543E"/>
<path d="M212.599 114.221C209.869 114.447 207.838 116.847 208.064 119.582C208.29 122.316 210.687 124.352 213.417 124.126C216.147 123.901 218.178 121.501 217.951 118.766C217.725 116.031 215.329 113.996 212.599 114.221ZM213.308 122.82C211.298 122.987 209.532 121.488 209.365 119.473C209.197 117.459 210.694 115.691 212.704 115.524C214.715 115.357 216.48 116.857 216.648 118.871C216.815 120.885 215.319 122.653 213.308 122.82Z" fill="#FFDCD2"/>
<path d="M212.537 118.761C214.41 118.849 215.999 117.398 216.085 115.521C216.172 113.645 214.723 112.052 212.85 111.965C210.976 111.878 209.387 113.328 209.301 115.205C209.214 117.082 210.663 118.674 212.537 118.761Z" fill="#FF8B78"/>
<path d="M166.761 155.724C173.251 156.025 178.754 150.999 179.054 144.497C179.354 137.995 174.336 132.48 167.846 132.178C161.357 131.877 155.853 136.903 155.553 143.405C155.253 149.907 160.271 155.422 166.761 155.724Z" fill="#FBBF05"/>
<path d="M266.494 143.911C272.984 144.213 278.488 139.186 278.787 132.684C279.087 126.182 274.069 120.667 267.58 120.366C261.09 120.064 255.586 125.091 255.287 131.592C254.987 138.094 260.005 143.61 266.494 143.911Z" fill="#FBBF05"/>
</svg>
