<svg width="245" height="169" viewBox="0 0 245 169" fill="none" xmlns="http://www.w3.org/2000/svg">
<g id="Group 153">
<path id="Vector" d="M118.948 161.904L178.774 51.8976C181.056 47.6998 186.648 47.744 188.912 51.9762L248.258 162.919C250.553 167.211 247.715 172.574 243.168 172.537L123.996 171.6C119.45 171.564 116.634 166.158 118.948 161.904Z" fill="#EF8433"/>
<g id="Group 4">
<path id="Vector_2" d="M214.676 16.6801L155.559 16.2921C147.995 16.2425 141.824 22.3335 141.774 29.8967L141.426 83.0053C141.376 90.5686 147.467 96.74 155.03 96.7897L214.148 97.1776C221.711 97.2273 227.882 91.1363 227.932 83.573L228.28 30.4644C228.33 22.9012 222.239 16.7297 214.676 16.6801Z" fill="#F8CD46"/>
<path id="Vector_3" opacity="0.41" d="M198.165 82.1114C202.163 82.2941 205.553 79.2011 205.735 75.2029C205.918 71.2048 202.825 67.8156 198.827 67.6329C194.829 67.4502 191.439 70.5433 191.257 74.5414C191.074 78.5395 194.167 81.9288 198.165 82.1114Z" fill="#E08D44"/>
<path id="Vector_4" opacity="0.41" d="M170.638 81.929C174.636 82.1117 178.025 79.0186 178.208 75.0205C178.391 71.0223 175.297 67.6331 171.299 67.4504C167.301 67.2678 163.912 70.3608 163.729 74.359C163.547 78.3571 166.64 81.7463 170.638 81.929Z" fill="#E08D44"/>
<path id="Vector_5" d="M192.409 70.1981C196.66 70.226 200.13 66.8149 200.158 62.5793C200.185 58.3437 196.761 54.8875 192.509 54.8596C188.257 54.8317 184.788 58.2427 184.76 62.4783C184.732 66.7139 188.157 70.1701 192.409 70.1981Z" fill="white"/>
<path id="Vector_6" d="M177.315 70.098C181.567 70.1259 185.036 66.7148 185.064 62.4792C185.092 58.2436 181.667 54.7874 177.415 54.7595C173.164 54.7316 169.694 58.1426 169.666 62.3782C169.639 66.6138 173.063 70.07 177.315 70.098Z" fill="white"/>
<path id="Vector_7" d="M191.874 67.3055C194.425 67.3222 196.506 65.2764 196.523 62.736C196.539 60.1955 194.485 58.1225 191.934 58.1058C189.383 58.089 187.302 60.1349 187.285 62.6753C187.269 65.2158 189.323 67.2888 191.874 67.3055Z" fill="black"/>
<path id="Vector_8" d="M177.682 67.2116C180.233 67.2283 182.315 65.1825 182.331 62.6421C182.348 60.1016 180.294 58.0286 177.743 58.0119C175.192 57.9951 173.111 60.041 173.094 62.5814C173.077 65.1219 175.132 67.1949 177.682 67.2116Z" fill="black"/>
<path id="Vector (Stroke)" fill-rule="evenodd" clip-rule="evenodd" d="M190.609 72.9134C191.535 72.5232 192.602 72.9576 192.992 73.8837C193.383 74.8098 192.948 75.8769 192.022 76.2671C187.985 77.9683 184.202 77.9759 181.447 77.5661C180.069 77.3611 178.937 77.0502 178.141 76.7866C177.742 76.6546 177.425 76.5338 177.201 76.4429C177.089 76.3974 177 76.3593 176.936 76.3309C176.904 76.3167 176.877 76.3049 176.858 76.2959C176.848 76.2913 176.839 76.2875 176.833 76.2843L176.824 76.2801L176.82 76.2784L176.819 76.2777C176.818 76.2774 176.817 76.277 177.596 74.6327L176.817 76.277C175.909 75.8468 175.522 74.7618 175.952 73.8536C176.381 72.9473 177.463 72.5596 178.37 72.9857C178.37 72.9859 178.371 72.9863 178.372 72.9867C178.377 72.989 178.388 72.9939 178.404 73.0011C178.437 73.0157 178.493 73.0399 178.571 73.0714C178.726 73.1346 178.967 73.227 179.284 73.3316C179.917 73.5413 180.845 73.7972 181.983 73.9665C184.261 74.3055 187.338 74.2919 190.609 72.9134Z" fill="#B8602C"/>
</g>
<path id="Vector_9" d="M141.135 147.93C141.067 186.589 114.418 193.288 81.8508 193.206C49.2815 193.126 23.1253 186.295 23.1945 147.638C23.2618 108.979 49.7193 77.7076 82.2887 77.7876C114.858 77.8675 141.204 109.272 141.136 147.93H141.135Z" fill="#98487E"/>
<path id="Vector (Stroke)_2" fill-rule="evenodd" clip-rule="evenodd" d="M59.399 95.353C59.4061 95.3559 59.4132 95.3588 54.3528 107.57C49.2924 119.782 49.2993 119.785 49.3062 119.788L49.3195 119.793L49.345 119.804C49.3544 119.808 49.3636 119.811 49.3723 119.815C49.3788 119.817 49.3851 119.82 49.3913 119.823C49.4201 119.834 49.4447 119.844 49.4654 119.852C49.5066 119.868 49.5319 119.878 49.542 119.881C49.5453 119.883 49.547 119.883 49.547 119.883C49.547 119.883 49.5062 119.868 49.4277 119.843C49.2366 119.782 48.841 119.664 48.2807 119.544C47.139 119.301 45.4639 119.081 43.5148 119.222C40.0309 119.474 34.703 120.892 29.2337 127.853L29.2335 127.853C27.6246 129.901 27.2182 132.391 27.643 135.364C27.8513 136.823 28.2344 138.122 28.569 139.048C28.7315 139.498 28.8693 139.823 28.9446 139.993C28.9818 140.077 29.0023 140.119 29.0008 140.116C29.0001 140.115 28.9937 140.101 28.9811 140.076C28.9748 140.063 28.967 140.048 28.9574 140.029L28.9419 139.998L28.9331 139.981L28.9285 139.972C28.9262 139.968 28.9238 139.963 17.1684 146.008C5.41302 152.053 5.41056 152.048 5.40807 152.043L5.40295 152.033L5.39217 152.012C5.38886 152.006 5.38546 151.999 5.38197 151.992C5.37762 151.984 5.37314 151.975 5.36851 151.966C5.35866 151.946 5.34817 151.925 5.33706 151.903C5.32936 151.888 5.32135 151.872 5.31306 151.855C5.27257 151.774 5.22511 151.677 5.17152 151.565C5.06442 151.343 4.93226 151.059 4.78181 150.72C4.48177 150.045 4.10389 149.136 3.705 148.032C2.9168 145.85 1.99432 142.763 1.47151 139.103C0.43412 131.84 0.863449 121.169 8.44602 111.519L18.8398 119.686L8.44602 111.519C18.8811 98.2386 31.3095 93.5991 41.606 92.8538C46.5471 92.4961 50.7683 93.0426 53.8002 93.6898C55.3267 94.0157 56.5873 94.3747 57.5307 94.6785C58.0036 94.8308 58.4006 94.9704 58.7154 95.0869C58.873 95.1451 59.0103 95.1978 59.1268 95.2435C59.185 95.2664 59.238 95.2875 59.2858 95.3068C59.3097 95.3164 59.3322 95.3256 59.3534 95.3343L59.3843 95.3469L59.399 95.353Z" fill="#98487E"/>
<path id="Vector_10" d="M22.7801 183.033C35.1447 183.033 45.1681 173.01 45.1681 160.645C45.1681 148.28 35.1447 138.257 22.7801 138.257C10.4155 138.257 0.39209 148.28 0.39209 160.645C0.39209 173.01 10.4155 183.033 22.7801 183.033Z" fill="#C48BDA"/>
<path id="Vector_11" d="M108.918 1.49903L42.0816 7.97C33.5306 8.79789 27.2698 16.401 28.0977 24.952L33.911 84.9963C34.7389 93.5473 42.342 99.8081 50.893 98.9802L117.73 92.5092C126.281 91.6814 132.542 84.0783 131.714 75.5273L125.9 15.483C125.072 6.93196 117.469 0.671144 108.918 1.49903Z" fill="#C48BDA"/>
<path id="Vector_12" d="M89.4378 46.2053C94.9285 45.6737 98.9504 40.8094 98.4209 35.3406C97.8915 29.8719 93.0111 25.8695 87.5204 26.4011C82.0297 26.9327 78.0078 31.797 78.5373 37.2657C79.0668 42.7345 83.9471 46.7368 89.4378 46.2053Z" fill="white"/>
<path id="Vector_13" d="M69.9525 48.0933C75.4432 47.5617 79.4651 42.6974 78.9356 37.2287C78.4061 31.7599 73.5258 27.7576 68.0351 28.2892C62.5444 28.8208 58.5225 33.685 59.052 39.1538C59.5814 44.6225 64.4618 48.6249 69.9525 48.0933Z" fill="white"/>
<path id="Vector_14" d="M88.3403 42.499C91.634 42.1801 94.0466 39.2618 93.7289 35.9808C93.4113 32.6997 90.4836 30.2985 87.1899 30.6174C83.8962 30.9363 81.4836 33.8546 81.8012 37.1356C82.1189 40.4166 85.0465 42.8179 88.3403 42.499Z" fill="#30263D"/>
<path id="Vector_15" d="M70.3432 44.3944C73.6369 44.0755 76.0495 41.1572 75.7318 37.8762C75.4142 34.5952 72.4866 32.1939 69.1928 32.5128C65.8991 32.8317 63.4865 35.75 63.8042 39.031C64.1218 42.312 67.0495 44.7133 70.3432 44.3944Z" fill="#30263D"/>
<path id="Vector_16" d="M107.762 36.1608L51.3628 42.3586L52.4587 52.331L108.858 46.1332L107.762 36.1608Z" fill="#C48BDA"/>
<path id="Vector (Stroke)_3" fill-rule="evenodd" clip-rule="evenodd" d="M88.5813 50.1646C89.232 51.1016 89 52.3887 88.063 53.0394C84.1728 55.7412 80.2749 56.1725 77.3703 55.9201C75.926 55.7945 74.7227 55.5006 73.8715 55.2346C73.4448 55.1012 73.1029 54.9736 72.8592 54.8754C72.7372 54.8262 72.6395 54.7842 72.5677 54.7523C72.5318 54.7364 72.5023 54.7229 72.4795 54.7124C72.4681 54.7071 72.4583 54.7025 72.4502 54.6987L72.4394 54.6935L72.4349 54.6914L72.4329 54.6904C72.432 54.69 72.4311 54.6895 73.3287 52.8292L72.4311 54.6895C71.4037 54.1938 70.9727 52.959 71.4684 51.9316C71.9627 50.9072 73.1915 50.4757 74.2171 50.9645C74.2203 50.9659 74.2294 50.9701 74.2444 50.9768C74.2746 50.9902 74.3283 51.0134 74.4038 51.0439C74.5551 51.1049 74.7927 51.1943 75.104 51.2916C75.729 51.4869 76.636 51.7095 77.7281 51.8045C79.8966 51.993 82.7766 51.6811 85.7065 49.6463C86.6434 48.9956 87.9305 49.2276 88.5813 50.1646Z" fill="#6D2860"/>
</g>
</svg>
