<svg width="105" height="85" viewBox="0 0 105 85" fill="none" xmlns="http://www.w3.org/2000/svg">
<g clip-path="url(#clip0_213_1407)">
<path d="M92.0949 38.7846V68.2349C92.0946 69.8425 91.1124 71.2891 89.612 71.8906L52.3832 84.5178C51.5598 84.8474 50.6488 84.8933 49.7961 84.6479L12.5939 73.9257C10.8992 73.4377 9.73344 71.8954 9.73389 70.1421V34.9813L28.2163 19.082L33.7055 20.05L57.5951 24.259L92.0949 38.7846Z" fill="#FDDDD8"/>
<path d="M56.6055 48.6073L51.1141 48.7043V84.7978C50.6694 84.8218 50.2239 84.7711 49.7961 84.6479L12.5939 73.9257C10.8992 73.4377 9.73344 71.8954 9.73389 70.1421V34.9813L28.2163 19.082L33.7055 20.05L56.6055 48.6073Z" fill="#FFFCF1"/>
<path d="M38.1452 52.5758L25.7311 49.489C23.6069 48.9605 21.4538 50.2433 20.9219 52.3542C20.8429 52.6675 20.8032 52.9892 20.8032 53.3122V76.2935L41.1472 82.1562V56.399C41.1485 54.5911 39.9104 53.0144 38.1452 52.5758Z" fill="#444444"/>
<path d="M97.7548 32.8182V38.4053C97.7542 40.2805 96.5117 41.9315 94.7018 42.4623L55.9132 53.8393C54.2677 54.322 52.4916 53.7752 51.409 52.4525L30.1354 26.4682C28.6553 24.6556 25.9765 24.3785 24.1525 25.8493C24.0877 25.9016 24.0245 25.9558 23.9628 26.0118L8.73755 39.7944C7.00002 41.3671 4.30842 41.2423 2.72577 39.5157C2.59974 39.3783 2.48304 39.2326 2.37631 39.08L0.761045 36.7693C-0.479917 34.9946 -0.174835 32.5755 1.46883 31.1602L26.0529 9.99352C26.3329 9.75209 26.644 9.54902 26.9781 9.38939C27.2878 9.23681 27.616 9.12437 27.9544 9.05425L68.0632 0.574369C69.5782 0.252019 71.1495 0.775011 72.1635 1.93918L96.7142 30.0467C97.04 30.4193 97.2969 30.8464 97.4731 31.3079C97.659 31.7901 97.7544 32.302 97.7548 32.8182Z" fill="#846DED"/>
<path d="M97.473 31.3079L57.9277 40.963C56.3841 41.3382 54.7587 40.8282 53.7121 39.64L26.978 9.39601C27.2878 9.24343 27.6159 9.13098 27.9543 9.06087L68.0631 0.574369C69.5781 0.252019 71.1494 0.775011 72.1634 1.93918L96.7142 30.0467C97.0399 30.4195 97.2968 30.8464 97.473 31.3079Z" fill="#B5A7F4"/>
<rect x="82.9756" y="12.2156" width="22.0244" height="21.8862" rx="6" fill="#52A5FF"/>
<path d="M99.4447 18.9837L92.1165 26.2789C92.0672 26.3282 92.0087 26.3673 91.9442 26.3939C91.8797 26.4206 91.8106 26.4343 91.7408 26.4343C91.6709 26.4343 91.6018 26.4206 91.5373 26.3939C91.4729 26.3673 91.4143 26.3282 91.365 26.2789L88.5311 23.4549C88.4818 23.4057 88.4233 23.3666 88.3588 23.34C88.2943 23.3133 88.2252 23.2996 88.1554 23.2996C88.0856 23.2996 88.0164 23.3133 87.952 23.34C87.8875 23.3666 87.8289 23.4057 87.7797 23.4549C87.7302 23.504 87.6909 23.5623 87.6642 23.6265C87.6374 23.6907 87.6236 23.7595 87.6236 23.829C87.6236 23.8985 87.6374 23.9673 87.6642 24.0315C87.6909 24.0957 87.7302 24.154 87.7797 24.203L90.6147 27.0249C90.9137 27.3221 91.319 27.489 91.7415 27.489C92.1641 27.489 92.5694 27.3221 92.8684 27.0249L100.196 19.7313C100.246 19.6823 100.285 19.624 100.311 19.5599C100.338 19.4957 100.352 19.427 100.352 19.3575C100.352 19.2881 100.338 19.2193 100.311 19.1552C100.285 19.091 100.246 19.0328 100.196 18.9837C100.147 18.9345 100.088 18.8954 100.024 18.8687C99.9594 18.8421 99.8903 18.8284 99.8205 18.8284C99.7506 18.8284 99.6815 18.8421 99.617 18.8687C99.5526 18.8954 99.494 18.9345 99.4447 18.9837Z" fill="white"/>
<path fill-rule="evenodd" clip-rule="evenodd" d="M88.5311 23.4549C88.4818 23.4057 88.4233 23.3666 88.3588 23.34C88.2943 23.3133 88.2252 23.2996 88.1554 23.2996C88.0856 23.2996 88.0164 23.3133 87.952 23.34C87.8875 23.3666 87.8289 23.4057 87.7797 23.4549C87.7302 23.504 87.6909 23.5623 87.6642 23.6265C87.6374 23.6907 87.6236 23.7595 87.6236 23.829C87.6236 23.8985 87.6374 23.9673 87.6642 24.0315C87.6909 24.0957 87.7302 24.154 87.7797 24.203L90.6147 27.0249C90.7639 27.1732 90.9398 27.2892 91.1309 27.3681C91.3224 27.4471 91.5294 27.4889 91.7408 27.489H91.7415C91.9527 27.489 92.1594 27.4474 92.3508 27.3686C92.4234 27.3388 92.4937 27.3036 92.5612 27.2634C92.6721 27.1972 92.7754 27.1174 92.8684 27.0249L100.196 19.7313C100.246 19.6823 100.285 19.624 100.311 19.5599C100.338 19.4957 100.352 19.427 100.352 19.3575C100.352 19.2881 100.338 19.2193 100.311 19.1552C100.285 19.091 100.246 19.0328 100.196 18.9837C100.147 18.9345 100.088 18.8954 100.024 18.8687C99.9594 18.8421 99.8903 18.8284 99.8205 18.8284C99.7506 18.8284 99.6815 18.8421 99.617 18.8687C99.5526 18.8954 99.494 18.9345 99.4447 18.9837L92.1165 26.2789C92.0861 26.3093 92.0522 26.3358 92.0156 26.3579C91.9928 26.3716 91.9689 26.3837 91.9442 26.3939C91.8799 26.4205 91.8111 26.4342 91.7415 26.4343H91.7408C91.6709 26.4343 91.6018 26.4206 91.5373 26.3939C91.4729 26.3673 91.4143 26.3282 91.365 26.2789L88.5311 23.4549ZM98.6933 18.2386L91.7409 25.1596L89.2825 22.7098L89.2819 22.7092C89.1343 22.5617 88.9588 22.4447 88.7656 22.3648C88.5722 22.2848 88.3648 22.2437 88.1554 22.2437C87.9459 22.2437 87.7385 22.2848 87.5451 22.3648C87.3523 22.4446 87.1771 22.5613 87.0296 22.7084C86.882 22.8552 86.7648 23.0295 86.6847 23.2214C86.6043 23.414 86.563 23.6205 86.563 23.829C86.563 24.0375 86.6043 24.244 86.6847 24.4366C86.7649 24.6287 86.8823 24.8033 87.0303 24.9503L87.0312 24.9512L89.8654 27.7723C90.3633 28.2671 91.0381 28.5449 91.7415 28.5449C92.445 28.5449 93.1198 28.2671 93.6177 27.7723L100.945 20.4789M98.6941 18.2377C98.8418 18.0904 99.0171 17.9735 99.2102 17.8936C99.4036 17.8136 99.611 17.7725 99.8205 17.7725C100.03 17.7725 100.237 17.8136 100.431 17.8936C100.624 17.9734 100.799 18.0903 100.947 18.2375C101.094 18.3844 101.211 18.5587 101.291 18.7505C101.371 18.9429 101.413 19.1492 101.413 19.3575C101.413 19.5659 101.371 19.7721 101.291 19.9646C101.211 20.1566 101.094 20.3311 100.946 20.478M98.6941 18.2377L98.6933 18.2386L98.6941 18.2377Z" fill="white"/>
<rect x="82.9756" y="51.9163" width="22.0244" height="21.8862" rx="6" fill="#FD618C"/>
<path d="M99.8026 56.8187C99.6209 56.63 99.3744 56.5239 99.1175 56.5239C98.8605 56.5239 98.614 56.63 98.4323 56.8187L93.9879 61.4358L89.5435 56.8187C89.3618 56.63 89.1153 56.5239 88.8583 56.5239C88.6013 56.5239 88.3549 56.63 88.1732 56.8187C87.9915 57.0075 87.8894 57.2635 87.8894 57.5305C87.8894 57.7974 87.9915 58.0535 88.1732 58.2423L92.6175 62.8593L88.1732 67.4764C87.9915 67.6652 87.8894 67.9212 87.8894 68.1882C87.8894 68.4551 87.9915 68.7112 88.1732 68.9C88.3549 69.0887 88.6013 69.1947 88.8583 69.1947C89.1153 69.1947 89.3618 69.0887 89.5435 68.9L93.9879 64.2829L98.4323 68.9C98.614 69.0887 98.8605 69.1947 99.1175 69.1947C99.3744 69.1947 99.6209 69.0887 99.8026 68.9C99.9843 68.7112 100.086 68.4551 100.086 68.1882C100.086 67.9212 99.9843 67.6652 99.8026 67.4764L95.3582 62.8593L99.8026 58.2423C99.9843 58.0535 100.086 57.7974 100.086 57.5305C100.086 57.2635 99.9843 57.0075 99.8026 56.8187Z" fill="white"/>
</g>
<defs>
<clipPath id="clip0_213_1407">
<rect width="105" height="85" fill="white"/>
</clipPath>
</defs>
</svg>
