<svg width="146" height="103" viewBox="0 0 146 103" fill="none" xmlns="http://www.w3.org/2000/svg">
<g clip-path="url(#clip0_115_1913)">
<path d="M12.622 25.9568L0.00366211 39.999L18.7682 57.0119L31.3865 42.9697L12.622 25.9568Z" fill="#2F2F2F"/>
<path d="M36.3905 1.59269e-05L23.7721 14.0422L42.5366 31.0551L55.155 17.0129L36.3905 1.59269e-05Z" fill="#2F2F2F"/>
<path d="M145.066 46.2903C134.672 42.0303 123.886 39.866 112.963 39.8284C112.035 38.1144 111.082 36.4004 110.117 34.6739C103.653 23.0826 95.3637 12.417 85.4804 2.97754L70.2041 6.44932C64.9666 20.1863 57.9917 33.1726 49.4785 45.058C38.219 60.7779 24.4248 74.3961 8.47583 85.5433L19.2309 101.069C36.9361 88.6961 52.2561 73.5641 64.7674 56.1051C70.9576 47.4601 76.4068 38.2896 81.0713 28.7062L83.3132 28.4873C86.6762 32.6972 89.7152 37.101 92.4118 41.6863C86.3274 43.1626 80.3987 45.965 75.2111 51.4323C63.6152 63.6555 58.2408 82.622 70.4096 95.233C75.454 100.463 82.2981 102.527 88.9492 102.527C93.6013 102.527 98.1661 101.513 101.94 99.8683C111.499 95.7022 118.188 86.7381 120.766 74.6213C121.925 69.1665 121.788 64.1058 120.804 59.2641C126.614 59.996 132.356 61.5161 137.967 63.8118L145.079 46.2966L145.066 46.2903ZM93.2089 82.9911C87.0872 85.437 81.1211 79.5193 83.1326 73.2201C85.4306 66.0263 93.62 59.0702 101.286 59.3204C105.434 67.2836 100.969 79.8884 93.2089 82.9911Z" fill="#2F2F2F"/>
</g>
<defs>
<clipPath id="clip0_115_1913">
<rect width="146" height="103" fill="white"/>
</clipPath>
</defs>
</svg>
