<svg width="430" height="449" viewBox="0 0 430 449" fill="none" xmlns="http://www.w3.org/2000/svg">
<g clip-path="url(#clip0_159_4683)">
<path opacity="0.3" fill-rule="evenodd" clip-rule="evenodd" d="M332.251 65.419C353.443 83.8358 367.324 110.453 369.64 144.503C376.089 239.344 305.046 307.025 214.315 329.446C192.853 334.749 170.138 337.589 146.841 337.714C199.436 383.829 291.58 409.058 432.981 372.671L438.416 393.793C276.521 435.453 170.556 400.142 114.488 336.148C48.5846 329.418 -19.4503 300.779 -75.1889 244.8L-59.7338 229.411C-13.5254 275.819 41.6359 301.984 96.2623 311.612C58.2938 250.764 59.2539 174.842 92.9113 121.383C130.787 61.2233 196.675 32.6573 254.604 35.8804C283.646 37.4963 311.217 47.1386 332.251 65.419ZM125.427 315.209C81.1197 259.15 79.5085 183.607 111.368 133.003C144.807 79.8894 202.971 54.8513 253.393 57.6568C278.527 59.0552 301.208 67.3354 317.945 81.8811C334.525 96.2904 345.937 117.403 347.88 145.982C353.372 226.737 293.399 287.437 209.083 308.273C182.812 314.765 154.44 317.267 125.427 315.209Z" fill="#E6E2FB"/>
<g filter="url(#filter0_d_159_4683)">
<path d="M39.7631 144.469L103.805 174.467C111.998 178.304 121.941 174.472 126.013 165.906L154.605 105.755C158.677 97.1895 155.336 87.1336 147.142 83.2943L83.1002 53.2966C74.907 49.4595 64.9639 53.2914 60.8922 61.8572L32.3004 122.008C28.2287 130.574 31.5697 140.63 39.7631 144.469Z" fill="#C48BDA"/>
<path fill-rule="evenodd" clip-rule="evenodd" d="M36.1429 152.198L36.1418 152.198C23.3217 146.191 18.6549 130.835 24.5922 118.344L53.1839 58.1933C59.1083 45.7301 73.94 39.5824 86.72 45.5675L150.764 75.566C163.584 81.5732 168.251 96.9288 162.313 109.419L133.721 169.57L126.013 165.906L154.605 105.755C158.677 97.1896 155.336 87.1336 147.142 83.2944L83.1003 53.2967C74.907 49.4596 64.9639 53.2915 60.8922 61.8573L32.3005 122.008C28.2287 130.574 31.5697 140.63 39.7631 144.469L103.805 174.467C111.998 178.304 121.941 174.472 126.013 165.906L133.721 169.57C127.797 182.034 112.965 188.181 100.185 182.196L36.1429 152.198Z" fill="white"/>
<path d="M88.6605 124.604C91.493 119.594 89.9031 113.332 85.1092 110.617C80.3153 107.901 74.1328 109.761 71.3002 114.771C68.4676 119.781 70.0576 126.044 74.8515 128.759C79.6454 131.474 85.8279 129.614 88.6605 124.604Z" fill="white"/>
<path d="M106.371 132.9C109.204 127.89 107.614 121.628 102.82 118.912C98.0262 116.197 91.8437 118.057 89.0111 123.067C86.1786 128.077 87.7686 134.34 92.5625 137.055C97.3564 139.77 103.539 137.91 106.371 132.9Z" fill="white"/>
<path d="M85.7337 122.121C87.4328 119.116 86.4787 115.359 83.6028 113.73C80.7269 112.101 77.0181 113.217 75.3191 116.222C73.62 119.227 74.5741 122.984 77.45 124.613C80.3259 126.242 84.0347 125.126 85.7337 122.121Z" fill="black"/>
<path d="M103.534 130.456C105.233 127.451 104.279 123.695 101.403 122.066C98.5272 120.437 94.8184 121.552 93.1194 124.557C91.4203 127.563 92.3744 131.319 95.2503 132.948C98.1262 134.577 101.835 133.461 103.534 130.456Z" fill="black"/>
<path d="M89.0165 123.925C91.4862 118.728 89.4439 112.619 84.4521 110.283C79.4624 107.945 73.4121 110.262 70.9425 115.459" fill="#A2528F"/>
<path d="M106.729 132.222C109.199 127.025 107.157 120.917 102.165 118.58C97.1753 116.243 91.125 118.559 88.6554 123.757" fill="#A2528F"/>
<path d="M143.985 81.8165C143.985 81.8165 118.928 130.118 44.9387 95.4582L60.3278 63.0781C65.0226 52.5211 75.2601 49.5507 83.8949 53.5322L143.985 81.8165Z" fill="#6D2860"/>
<path d="M128.345 74.4901C128.345 74.4901 117.559 129.474 139.004 139.521L154.395 107.141C159.618 96.8332 155.419 87.0983 146.834 83.0134L128.343 74.4881L128.345 74.4901Z" fill="#6D2860"/>
<path fill-rule="evenodd" clip-rule="evenodd" d="M90.2608 139.763C90.5208 140.929 89.787 142.085 88.6218 142.345C83.902 143.399 80.4746 141.904 78.2707 140.066C77.1988 139.173 76.4363 138.219 75.9404 137.49C75.6908 137.123 75.5041 136.806 75.3756 136.572C75.3111 136.454 75.261 136.357 75.2245 136.284C75.2062 136.247 75.1913 136.216 75.1798 136.192C75.174 136.18 75.169 136.169 75.1649 136.16L75.1593 136.148L75.157 136.143L75.1559 136.141C75.1555 136.14 75.155 136.139 77.1227 135.243L75.155 136.139C74.6607 135.051 75.1411 133.768 76.2278 133.274C77.3102 132.781 78.586 133.257 79.0845 134.335C79.0859 134.338 79.089 134.344 79.0939 134.354C79.1064 134.379 79.13 134.425 79.1652 134.49C79.2358 134.618 79.3514 134.816 79.5143 135.056C79.8434 135.54 80.3466 136.166 81.0374 136.742C82.3592 137.844 84.4459 138.844 87.6802 138.122C88.8454 137.862 90.0008 138.597 90.2608 139.763Z" fill="#6D2860"/>
</g>
<g filter="url(#filter1_dd_159_4683)">
<path d="M334.094 30.1802L281.828 53.7157C275.141 56.727 272.163 64.5847 275.177 71.2664L296.339 118.183C299.352 124.865 307.217 127.84 313.904 124.829L366.17 101.293C372.857 98.2821 375.835 90.4243 372.821 83.7426L351.66 36.8261C348.646 30.1444 340.781 27.1689 334.094 30.1802Z" fill="#FBBF05"/>
<path fill-rule="evenodd" clip-rule="evenodd" d="M279.361 48.2463L331.627 24.7108C341.333 20.3402 352.753 24.6573 357.13 34.3625L378.292 81.279C382.67 90.9843 378.343 102.392 368.637 106.763L316.371 130.298C306.665 134.669 295.245 130.352 290.868 120.646L269.706 73.7299C265.328 64.0247 269.655 52.6169 279.361 48.2463ZM281.828 53.7156L334.094 30.1802C340.781 27.1689 348.646 30.1444 351.659 36.8261L372.821 83.7426C375.835 90.4243 372.857 98.2821 366.17 101.293L313.904 124.829C307.217 127.84 299.352 124.865 296.338 118.183L275.177 71.2664C272.163 64.5847 275.141 56.7269 281.828 53.7156Z" fill="white"/>
<path opacity="0.41" d="M345.504 96.1206C349.937 96.1206 353.531 92.5295 353.531 88.0998C353.531 83.67 349.937 80.079 345.504 80.079C341.07 80.079 337.476 83.67 337.476 88.0998C337.476 92.5295 341.07 96.1206 345.504 96.1206Z" fill="#EE8A2E"/>
<path opacity="0.41" d="M317.708 108.64C322.141 108.64 325.735 105.049 325.735 100.619C325.735 96.1896 322.141 92.5985 317.708 92.5985C313.274 92.5985 309.68 96.1896 309.68 100.619C309.68 105.049 313.274 108.64 317.708 108.64Z" fill="#EE8A2E"/>
<path d="M337.217 86.2247C341.511 84.291 343.429 79.2596 341.502 74.9866C339.575 70.7137 334.531 68.8173 330.237 70.751C325.943 72.6846 324.024 77.7161 325.952 81.989C327.879 86.2619 332.922 88.1583 337.217 86.2247Z" fill="white"/>
<path d="M321.976 93.0857C326.27 91.1521 328.189 86.1206 326.262 81.8477C324.335 77.5747 319.291 75.6784 314.997 77.612C310.703 79.5457 308.784 84.5771 310.711 88.8501C312.639 93.123 317.682 95.0194 321.976 93.0857Z" fill="white"/>
<path d="M335.709 82.8541C338.285 81.694 339.436 78.6757 338.28 76.1125C337.124 73.5493 334.098 72.4118 331.522 73.5719C328.946 74.7319 327.795 77.7503 328.951 80.3135C330.107 82.8767 333.133 84.0142 335.709 82.8541Z" fill="black"/>
<path d="M320.395 89.75C322.972 88.5899 324.123 85.5716 322.967 83.0084C321.81 80.4452 318.785 79.3077 316.209 80.4677C313.632 81.6278 312.481 84.6461 313.637 87.2094C314.793 89.7726 317.819 90.9101 320.395 89.75Z" fill="black"/>
<path d="M333.052 85.1562C332.615 85.3445 332.238 85.6324 331.929 85.9983C331.078 86.9993 330.063 87.7984 328.897 88.3015C327.577 88.9338 326.144 89.2298 324.636 89.1383C324.157 89.1141 323.691 89.1894 323.252 89.3778C320.977 90.3572 320.365 94.0137 321.887 97.5412C323.618 101.504 327.453 103.937 329.887 101.313C330.738 100.313 331.754 99.5134 332.92 99.0103C334.239 98.378 335.672 98.082 337.18 98.1735C337.659 98.1977 338.125 98.1223 338.564 97.934C343.89 95.2783 338.642 83.1113 333.052 85.1589V85.1562Z" fill="#F7543E"/>
<path d="M330.413 92.5016C327.65 93.6909 326.376 96.8927 327.569 99.6533C328.759 102.414 331.964 103.687 334.727 102.495C337.49 101.305 338.764 98.1035 337.571 95.3429C336.38 92.5823 333.176 91.3097 330.413 92.5016ZM334.159 101.179C332.126 102.056 329.764 101.117 328.886 99.0856C328.008 97.0542 328.948 94.6945 330.981 93.8173C333.014 92.9402 335.376 93.8792 336.254 95.9106C337.132 97.9421 336.192 100.302 334.159 101.179Z" fill="#FFDCD2"/>
<path d="M330.911 97.3824C332.971 97.3824 334.64 95.714 334.64 93.6559C334.64 91.5978 332.971 89.9294 330.911 89.9294C328.851 89.9294 327.181 91.5978 327.181 93.6559C327.181 95.714 328.851 97.3824 330.911 97.3824Z" fill="#FF8B78"/>
</g>
<g filter="url(#filter2_d_159_4683)">
<path d="M166.687 280.346L84.9626 268.21C74.5074 266.658 64.7635 273.811 63.1991 284.187L52.2135 357.051C50.6491 367.427 57.8565 377.098 68.3117 378.65L150.036 390.786C160.491 392.339 170.235 385.186 171.799 374.809L182.785 301.945C184.349 291.569 177.142 281.899 166.687 280.346Z" fill="#FBBF05"/>
<path fill-rule="evenodd" clip-rule="evenodd" d="M86.0745 260.838L167.798 272.974C182.32 275.131 192.371 288.574 190.189 303.045L179.203 375.909C177.022 390.379 163.446 400.314 148.925 398.158L67.2007 386.022C52.6792 383.866 42.6283 370.422 44.81 355.952L55.7957 283.087C57.9773 268.617 71.553 258.682 86.0745 260.838ZM84.963 268.21L166.687 280.346C177.142 281.899 184.35 291.569 182.785 301.945L171.8 374.809C170.235 385.186 160.491 392.339 150.036 390.786L68.3121 378.65C57.8569 377.098 50.6495 367.427 52.2139 357.051L63.1995 284.187C64.7639 273.811 74.5078 266.658 84.963 268.21Z" fill="white"/>
<path d="M141.246 338.054C142.247 331.418 137.615 325.23 130.901 324.233C124.187 323.236 117.933 327.807 116.933 334.443C115.932 341.079 120.564 347.267 127.278 348.264C133.992 349.261 140.246 344.69 141.246 338.054Z" fill="white"/>
<path d="M117.416 334.516C118.416 327.88 113.785 321.693 107.071 320.696C100.357 319.699 94.103 324.27 93.1025 330.905C92.1021 337.541 96.7338 343.729 103.448 344.726C110.162 345.723 116.416 341.152 117.416 334.516Z" fill="white"/>
<path d="M136.081 337.576C136.681 333.595 133.903 329.882 129.876 329.284C125.849 328.686 122.097 331.429 121.497 335.411C120.897 339.392 123.675 343.104 127.702 343.703C131.729 344.301 135.48 341.558 136.081 337.576Z" fill="black"/>
<path d="M112.135 334.021C112.735 330.039 109.957 326.327 105.93 325.729C101.903 325.131 98.1515 327.874 97.5513 331.855C96.951 335.837 99.729 339.549 103.756 340.147C107.783 340.745 111.535 338.002 112.135 334.021Z" fill="black"/>
<path d="M141.879 341.005L91.9688 332.93L89.3862 348.65L139.297 356.726L141.879 341.005Z" fill="#FBBF05"/>
<path opacity="0.41" d="M135.847 364.222C142.236 364.222 147.416 359.082 147.416 352.741C147.416 346.4 142.236 341.259 135.847 341.259C129.458 341.259 124.278 346.4 124.278 352.741C124.278 359.082 129.458 364.222 135.847 364.222Z" fill="#EE8A2E"/>
<path opacity="0.41" d="M92.3857 357.768C98.775 357.768 103.955 352.627 103.955 346.286C103.955 339.945 98.775 334.805 92.3857 334.805C85.9964 334.805 80.8169 339.945 80.8169 346.286C80.8169 352.627 85.9964 357.768 92.3857 357.768Z" fill="#EE8A2E"/>
<path fill-rule="evenodd" clip-rule="evenodd" d="M106.155 350.356C104.528 352.295 104.529 352.295 104.53 352.296L104.532 352.298L104.536 352.302L104.548 352.311C104.556 352.318 104.567 352.326 104.579 352.336C104.603 352.355 104.634 352.38 104.672 352.409C104.748 352.468 104.852 352.547 104.983 352.641C105.245 352.83 105.615 353.082 106.085 353.367C107.022 353.934 108.37 354.639 110.057 355.216C113.45 356.375 118.232 357.019 123.683 354.972C124.997 354.479 125.659 353.023 125.162 351.719C124.665 350.416 123.197 349.759 121.884 350.252C117.778 351.794 114.246 351.31 111.714 350.444C110.438 350.008 109.422 349.475 108.734 349.059C108.391 348.851 108.134 348.675 107.972 348.558C107.89 348.5 107.833 348.456 107.801 348.431C107.785 348.419 107.776 348.411 107.772 348.409C106.693 347.526 105.097 347.673 104.201 348.741C103.303 349.812 103.449 351.403 104.528 352.295L106.155 350.356Z" fill="#C65A17"/>
</g>
<g filter="url(#filter3_d_159_4683)">
<path d="M364.004 226.206L283.02 243.137C272.658 245.303 266.008 255.488 268.167 265.886L283.325 338.89C285.484 349.288 295.634 355.961 305.996 353.794L386.98 336.863C397.342 334.697 403.992 324.512 401.833 314.114L386.675 241.11C384.516 230.712 374.366 224.039 364.004 226.206Z" fill="#C48BDA"/>
<path fill-rule="evenodd" clip-rule="evenodd" d="M281.768 237.109L362.753 220.178C376.432 217.318 389.831 226.127 392.681 239.854L407.84 312.859C410.69 326.585 401.911 340.031 388.232 342.891L307.248 359.822C293.568 362.682 280.169 353.873 277.319 340.146L262.16 267.141C259.31 253.415 268.089 239.969 281.768 237.109ZM283.02 243.137L364.004 226.206C374.366 224.039 384.516 230.712 386.675 241.11L401.833 314.114C403.992 324.512 397.342 334.697 386.98 336.863L305.996 353.794C295.634 355.961 285.484 349.288 283.325 338.89L268.167 265.886C266.008 255.488 272.658 245.303 283.02 243.137Z" fill="white"/>
<path d="M349.067 298.416C355.719 297.026 359.993 290.508 358.612 283.86C357.232 277.211 350.72 272.949 344.068 274.339C337.415 275.73 333.142 282.247 334.522 288.896C335.903 295.545 342.414 299.807 349.067 298.416Z" fill="white"/>
<path d="M325.453 303.351C332.106 301.96 336.379 295.443 334.999 288.795C333.618 282.146 327.107 277.884 320.454 279.274C313.802 280.665 309.528 287.182 310.909 293.831C312.289 300.48 318.801 304.742 325.453 303.351Z" fill="white"/>
<path d="M347.872 293.937C351.863 293.102 354.427 289.192 353.599 285.203C352.77 281.214 348.864 278.656 344.873 279.49C340.882 280.325 338.318 284.235 339.147 288.224C339.975 292.213 343.882 294.771 347.872 293.937Z" fill="#30263D"/>
<path d="M324.143 298.898C328.134 298.064 330.698 294.153 329.87 290.164C329.041 286.175 325.135 283.617 321.144 284.452C317.153 285.286 314.589 289.196 315.418 293.186C316.246 297.175 320.153 299.732 324.143 298.898Z" fill="#30263D"/>
<path d="M359.32 287.396L309.508 297.81L311.343 306.649L361.155 296.234L359.32 287.396Z" fill="#C48BDA"/>
<path fill-rule="evenodd" clip-rule="evenodd" d="M349.15 305.289C350.075 306.356 349.969 307.967 348.913 308.888C344.527 312.711 339.818 313.746 336.23 313.813C334.446 313.847 332.934 313.642 331.856 313.425C331.315 313.317 330.879 313.205 330.568 313.116C330.412 313.071 330.286 313.032 330.194 313.002C330.148 312.988 330.11 312.975 330.081 312.965C330.066 312.96 330.053 312.955 330.043 312.952L330.029 312.947L330.023 312.945L330.021 312.944C330.019 312.943 330.018 312.943 330.859 310.541L330.018 312.943C328.693 312.467 327.994 311.006 328.459 309.68C328.922 308.357 330.365 307.667 331.688 308.134C331.691 308.136 331.694 308.137 331.697 308.138L331.696 308.137L331.692 308.136L331.688 308.134C331.686 308.134 331.686 308.134 331.688 308.134C331.688 308.134 331.688 308.134 331.688 308.134C331.692 308.136 331.704 308.14 331.723 308.146C331.762 308.159 331.831 308.18 331.927 308.208C332.121 308.263 332.424 308.342 332.818 308.421C333.609 308.58 334.75 308.736 336.099 308.71C338.777 308.66 342.258 307.904 345.561 305.025C346.617 304.104 348.224 304.222 349.15 305.289ZM331.697 308.138C331.697 308.138 331.698 308.138 331.698 308.138C331.698 308.138 331.698 308.138 331.698 308.138L331.697 308.138Z" fill="#6D2860"/>
<path d="M345.579 300.199C349.247 300.552 352.342 299.568 352.491 298.001C352.641 296.435 349.789 294.879 346.12 294.527C342.452 294.174 339.357 295.158 339.208 296.725C339.058 298.291 341.911 299.846 345.579 300.199Z" fill="#AA72BE"/>
<path d="M329.848 303.821C333.07 302.028 335.066 299.459 334.306 298.083C333.546 296.707 330.317 297.045 327.094 298.838C323.871 300.631 321.875 303.2 322.636 304.577C323.396 305.953 326.625 305.615 329.848 303.821Z" fill="#AA72BE"/>
</g>
<g filter="url(#filter4_d_159_4683)">
<path fill-rule="evenodd" clip-rule="evenodd" d="M209.394 146.326C209.599 145.694 209.253 145.015 208.62 144.809C207.988 144.604 207.309 144.951 207.103 145.583C205.913 149.254 207.15 152.758 209.57 155.099C209.338 155.858 209.163 156.654 209.049 157.449C208.818 159.069 208.831 160.781 209.223 162.233C209.351 162.707 209.519 163.159 209.72 163.59C193.479 169.407 183.005 185.964 185.521 203.688L185.601 204.249C188.483 224.551 207.316 238.698 227.666 235.846C248.016 232.994 262.176 214.224 259.294 193.921L259.215 193.361C256.333 173.059 237.5 158.912 217.15 161.764C215.398 162.009 213.691 162.373 212.038 162.845C211.83 162.451 211.664 162.038 211.548 161.606C211.266 160.562 211.232 159.199 211.433 157.789C211.488 157.405 211.559 157.025 211.645 156.655C213.764 157.863 216.331 158.337 218.882 157.706C220.705 157.255 222.009 156.132 222.281 154.531C222.541 152.995 221.765 151.475 220.477 150.356C219.167 149.219 217.501 148.12 215.292 148.821C213.392 149.423 211.637 150.874 210.603 152.654C209.24 150.928 208.646 148.634 209.394 146.326ZM218.303 155.368C216.181 155.893 214.091 155.419 212.438 154.334C212.49 154.227 212.542 154.124 212.596 154.023C213.327 152.662 214.666 151.546 216.02 151.116C216.947 150.823 217.711 151.144 218.897 152.174C219.788 152.948 219.981 153.689 219.906 154.129C219.843 154.503 219.51 155.07 218.303 155.368Z" fill="#305AB7"/>
<path fill-rule="evenodd" clip-rule="evenodd" d="M214.559 155.305C214.8 155.373 215.046 155.429 215.295 155.473C215.37 155.486 215.445 155.498 215.521 155.509C215.666 155.53 215.812 155.546 215.959 155.558C216.067 155.567 216.175 155.574 216.283 155.578C216.658 155.592 217.037 155.577 217.42 155.53C217.553 155.514 217.687 155.494 217.821 155.471C217.982 155.442 218.143 155.408 218.304 155.368C219.51 155.07 219.843 154.503 219.906 154.129C219.936 153.952 219.923 153.726 219.839 153.469C219.713 153.087 219.43 152.636 218.898 152.174C218.256 151.617 217.738 151.267 217.251 151.11C217.12 151.068 216.992 151.039 216.864 151.024C216.587 150.992 216.312 151.024 216.021 151.116C215.679 151.225 215.339 151.376 215.009 151.565C214.751 151.712 214.499 151.882 214.258 152.071C213.942 152.32 213.644 152.601 213.376 152.907C213.347 152.94 213.318 152.974 213.289 153.008C213.289 153.008 213.289 153.008 213.289 153.008C213.063 153.277 212.86 153.563 212.686 153.863C212.655 153.916 212.625 153.97 212.597 154.023C212.543 154.124 212.49 154.227 212.439 154.334C212.5 154.374 212.562 154.414 212.625 154.452C212.693 154.494 212.762 154.535 212.831 154.575C213.288 154.838 213.774 155.056 214.281 155.22C214.373 155.25 214.466 155.278 214.559 155.305ZM209.021 161.259C208.945 160.763 208.906 160.247 208.899 159.725C208.888 158.97 208.942 158.199 209.049 157.449C209.113 157.001 209.197 156.553 209.299 156.112C209.378 155.769 209.469 155.431 209.57 155.099C209.262 154.801 208.974 154.485 208.707 154.151C208.351 153.707 208.034 153.234 207.761 152.735C207.611 152.459 207.473 152.176 207.351 151.885C207.235 151.609 207.131 151.327 207.042 151.04C206.987 150.862 206.938 150.682 206.894 150.5C206.876 150.429 206.86 150.358 206.845 150.286C206.721 149.713 206.652 149.121 206.646 148.517C206.636 147.565 206.781 146.58 207.104 145.583C207.172 145.372 207.294 145.192 207.45 145.054C207.758 144.781 208.2 144.673 208.621 144.809C209.042 144.946 209.336 145.292 209.425 145.695C209.46 145.853 209.464 146.019 209.431 146.184C209.422 146.232 209.41 146.279 209.395 146.326C208.683 148.522 209.186 150.705 210.41 152.399C210.473 152.485 210.537 152.57 210.603 152.654C210.688 152.509 210.777 152.366 210.871 152.225C211.506 151.271 212.349 150.431 213.3 149.793C213.584 149.602 213.878 149.43 214.179 149.278C214.301 149.216 214.425 149.157 214.55 149.102C214.644 149.061 214.738 149.022 214.832 148.984C214.984 148.924 215.138 148.87 215.293 148.821C215.381 148.793 215.469 148.768 215.555 148.745C215.771 148.69 215.981 148.651 216.185 148.628C216.267 148.619 216.348 148.612 216.429 148.607C216.429 148.607 216.429 148.607 216.429 148.607C216.497 148.604 216.564 148.602 216.631 148.601C216.772 148.6 216.911 148.606 217.047 148.619C217.051 148.619 217.055 148.62 217.059 148.62C218.425 148.752 219.542 149.544 220.477 150.356C221.446 151.198 222.125 152.266 222.291 153.398C222.346 153.771 222.345 154.15 222.281 154.531C222.029 156.02 220.883 157.095 219.257 157.601C219.251 157.603 219.246 157.605 219.24 157.607C219.123 157.643 219.004 157.676 218.882 157.706C218.64 157.766 218.399 157.815 218.157 157.856C217.866 157.904 217.576 157.939 217.286 157.96C217.217 157.965 217.149 157.969 217.08 157.973C216.973 157.978 216.866 157.982 216.76 157.984C216.713 157.985 216.667 157.985 216.621 157.985C215.77 157.988 214.933 157.877 214.127 157.667C213.688 157.553 213.258 157.409 212.84 157.237C212.429 157.069 212.03 156.874 211.645 156.655C211.56 157.025 211.488 157.405 211.434 157.789C211.302 158.71 211.271 159.611 211.344 160.416C211.382 160.843 211.45 161.244 211.548 161.606C211.638 161.939 211.757 162.26 211.902 162.571C211.945 162.663 211.99 162.755 212.038 162.845C212.77 162.636 213.512 162.449 214.264 162.283C215.211 162.074 216.173 161.901 217.15 161.764C217.322 161.74 217.494 161.717 217.665 161.695C218.385 161.604 219.102 161.535 219.816 161.486C221.219 161.39 222.611 161.374 223.988 161.433C225.103 161.482 226.209 161.58 227.301 161.727C243.429 163.887 256.822 176.502 259.215 193.361L259.295 193.921C262.177 214.224 248.016 232.994 227.666 235.846C207.316 238.698 188.483 224.551 185.601 204.249L185.522 203.688C183.345 188.354 190.89 173.894 203.482 166.506C203.855 166.287 204.232 166.075 204.613 165.869C205.867 165.191 207.167 164.582 208.51 164.048C208.737 163.957 208.966 163.869 209.196 163.783C209.37 163.717 209.545 163.653 209.72 163.59C209.519 163.159 209.351 162.707 209.223 162.233C209.212 162.194 209.202 162.155 209.192 162.115C209.153 161.962 209.118 161.806 209.088 161.648C209.063 161.519 209.04 161.39 209.021 161.259ZM200.91 158.777C200.931 158.19 200.974 157.621 201.034 157.077C198.727 153.168 197.833 148.238 199.494 143.116M200.91 158.777C184.729 167.469 174.868 185.563 177.601 204.813L177.68 205.373C181.185 230.06 204.072 247.231 228.776 243.769C253.492 240.305 270.721 217.495 267.215 192.797L267.136 192.237C264.324 172.428 249.032 157.458 230.335 154.104C230.416 149.744 228.013 146.305 225.722 144.316L224.143 146.134L225.722 144.316C224.289 143.071 220.733 140.234 215.753 140.625C214.647 139.065 213.047 137.835 211.088 137.2C206.253 135.632 201.062 138.28 199.494 143.116" fill="white"/>
<path d="M259.294 193.921L259.215 193.361C256.333 173.059 237.5 158.912 217.15 161.764C196.8 164.615 182.639 183.386 185.521 203.688L185.601 204.248C188.483 224.551 207.316 238.698 227.666 235.846C248.016 232.994 262.176 214.224 259.294 193.921Z" fill="#97C9FF"/>
<path fill-rule="evenodd" clip-rule="evenodd" d="M229.128 204.045C229.78 204.674 229.797 205.711 229.167 206.361C226.614 208.992 223.816 209.474 221.651 209.229C220.598 209.11 219.717 208.825 219.097 208.57C218.786 208.442 218.535 208.319 218.356 208.224C218.266 208.177 218.193 208.136 218.14 208.105C218.113 208.089 218.09 208.076 218.073 208.065C218.064 208.06 218.057 208.056 218.05 208.052L218.042 208.046L218.038 208.044L218.037 208.043C218.036 208.043 218.035 208.042 218.909 206.656L218.035 208.042C217.267 207.56 217.036 206.549 217.519 205.783C217.999 205.021 219.007 204.79 219.773 205.265C219.775 205.266 219.78 205.269 219.787 205.273C219.806 205.284 219.84 205.303 219.889 205.329C219.988 205.381 220.144 205.458 220.347 205.542C220.758 205.711 221.339 205.898 222.017 205.974C223.315 206.121 225.056 205.885 226.806 204.081C227.436 203.432 228.476 203.415 229.128 204.045Z" fill="#305AB7"/>
<path d="M229.623 201.895C233.301 201.358 235.839 197.927 235.292 194.233C234.746 190.539 231.321 187.98 227.643 188.518C223.965 189.055 221.427 192.486 221.974 196.18C222.521 199.874 225.945 202.433 229.623 201.895Z" fill="white"/>
<path d="M216.562 203.726C220.239 203.188 222.778 199.758 222.231 196.063C221.684 192.369 218.259 189.811 214.582 190.348C210.904 190.886 208.366 194.316 208.912 198.01C209.459 201.704 212.884 204.263 216.562 203.726Z" fill="white"/>
<path d="M229.111 199.397C231.318 199.075 232.84 197.017 232.512 194.801C232.184 192.585 230.13 191.05 227.924 191.373C225.717 191.695 224.195 193.753 224.523 195.969C224.851 198.185 226.905 199.72 229.111 199.397Z" fill="#2B2840"/>
<path d="M215.982 201.236C218.189 200.913 219.711 198.855 219.383 196.64C219.055 194.424 217.001 192.889 214.795 193.211C212.588 193.534 211.066 195.592 211.394 197.808C211.722 200.023 213.776 201.558 215.982 201.236Z" fill="#2B2840"/>
<path opacity="0.57" d="M245.697 214.089C250.823 213.351 254.368 208.562 253.615 203.392C252.861 198.222 248.095 194.628 242.969 195.366C237.843 196.103 234.298 200.892 235.051 206.063C235.805 211.233 240.571 214.826 245.697 214.089Z" fill="#52A5FF"/>
<path opacity="0.57" d="M204.745 219.98C209.871 219.242 213.416 214.453 212.663 209.283C211.91 204.112 207.143 200.519 202.017 201.256C196.891 201.994 193.347 206.783 194.1 211.953C194.853 217.124 199.619 220.717 204.745 219.98Z" fill="#52A5FF"/>
<path fill-rule="evenodd" clip-rule="evenodd" d="M208.62 144.809C209.253 145.014 209.599 145.694 209.394 146.326C208.646 148.634 209.24 150.927 210.603 152.654C211.637 150.874 213.392 149.423 215.292 148.821C217.501 148.12 219.167 149.219 220.477 150.356C221.765 151.475 222.541 152.995 222.281 154.531C222.009 156.132 220.705 157.255 218.881 157.706C216.331 158.337 213.764 157.862 211.645 156.654C211.559 157.025 211.488 157.405 211.433 157.789C211.232 159.199 211.266 160.562 211.548 161.605C212.285 164.338 214.98 166.276 217.789 167.906C218.724 168.449 219.682 168.857 220.604 168.97C221.264 169.05 221.734 169.65 221.654 170.31C221.574 170.97 220.974 171.44 220.314 171.36C218.928 171.192 217.644 170.606 216.58 169.989C213.839 168.398 210.247 166.03 209.223 162.233C208.831 160.78 208.818 159.069 209.049 157.449C209.163 156.654 209.338 155.858 209.57 155.099C207.15 152.758 205.913 149.254 207.103 145.583C207.309 144.951 207.988 144.604 208.62 144.809ZM212.438 154.334C214.091 155.419 216.18 155.893 218.303 155.368C219.51 155.07 219.843 154.503 219.906 154.129C219.981 153.689 219.788 152.948 218.897 152.174C217.711 151.144 216.947 150.822 216.02 151.116C214.666 151.546 213.327 152.662 212.596 154.023C212.542 154.123 212.49 154.227 212.438 154.334Z" fill="#305AB7"/>
</g>
</g>
<defs>
<filter id="filter0_d_159_4683" x="3.49365" y="28.3917" width="180.012" height="179.217" filterUnits="userSpaceOnUse" color-interpolation-filters="sRGB">
<feFlood flood-opacity="0" result="BackgroundImageFix"/>
<feColorMatrix in="SourceAlpha" type="matrix" values="0 0 0 0 0 0 0 0 0 0 0 0 0 0 0 0 0 0 127 0" result="hardAlpha"/>
<feOffset dy="4"/>
<feGaussianBlur stdDeviation="2"/>
<feComposite in2="hardAlpha" operator="out"/>
<feColorMatrix type="matrix" values="0 0 0 0 0 0 0 0 0 0 0 0 0 0 0 0 0 0 0.05 0"/>
<feBlend mode="normal" in2="BackgroundImageFix" result="effect1_dropShadow_159_4683"/>
<feBlend mode="normal" in="SourceGraphic" in2="effect1_dropShadow_159_4683" result="shape"/>
</filter>
<filter id="filter1_dd_159_4683" x="263" y="23" width="121" height="121" filterUnits="userSpaceOnUse" color-interpolation-filters="sRGB">
<feFlood flood-opacity="0" result="BackgroundImageFix"/>
<feColorMatrix in="SourceAlpha" type="matrix" values="0 0 0 0 0 0 0 0 0 0 0 0 0 0 0 0 0 0 127 0" result="hardAlpha"/>
<feOffset dy="4"/>
<feGaussianBlur stdDeviation="2"/>
<feComposite in2="hardAlpha" operator="out"/>
<feColorMatrix type="matrix" values="0 0 0 0 0 0 0 0 0 0 0 0 0 0 0 0 0 0 0.05 0"/>
<feBlend mode="normal" in2="BackgroundImageFix" result="effect1_dropShadow_159_4683"/>
<feColorMatrix in="SourceAlpha" type="matrix" values="0 0 0 0 0 0 0 0 0 0 0 0 0 0 0 0 0 0 127 0" result="hardAlpha"/>
<feOffset dy="8"/>
<feGaussianBlur stdDeviation="1.5"/>
<feComposite in2="hardAlpha" operator="out"/>
<feColorMatrix type="matrix" values="0 0 0 0 0 0 0 0 0 0 0 0 0 0 0 0 0 0 0.05 0"/>
<feBlend mode="normal" in2="effect1_dropShadow_159_4683" result="effect2_dropShadow_159_4683"/>
<feBlend mode="normal" in="SourceGraphic" in2="effect2_dropShadow_159_4683" result="shape"/>
</filter>
<filter id="filter2_d_159_4683" x="36.8657" y="256.928" width="161.267" height="153.141" filterUnits="userSpaceOnUse" color-interpolation-filters="sRGB">
<feFlood flood-opacity="0" result="BackgroundImageFix"/>
<feColorMatrix in="SourceAlpha" type="matrix" values="0 0 0 0 0 0 0 0 0 0 0 0 0 0 0 0 0 0 127 0" result="hardAlpha"/>
<feOffset dy="4"/>
<feGaussianBlur stdDeviation="2"/>
<feComposite in2="hardAlpha" operator="out"/>
<feColorMatrix type="matrix" values="0 0 0 0 0 0 0 0 0 0 0 0 0 0 0 0 0 0 0.05 0"/>
<feBlend mode="normal" in2="BackgroundImageFix" result="effect1_dropShadow_159_4683"/>
<feBlend mode="normal" in="SourceGraphic" in2="effect1_dropShadow_159_4683" result="shape"/>
</filter>
<filter id="filter3_d_159_4683" x="254" y="215" width="162" height="161" filterUnits="userSpaceOnUse" color-interpolation-filters="sRGB">
<feFlood flood-opacity="0" result="BackgroundImageFix"/>
<feColorMatrix in="SourceAlpha" type="matrix" values="0 0 0 0 0 0 0 0 0 0 0 0 0 0 0 0 0 0 127 0" result="hardAlpha"/>
<feOffset dy="8"/>
<feGaussianBlur stdDeviation="1.5"/>
<feComposite in2="hardAlpha" operator="out"/>
<feColorMatrix type="matrix" values="0 0 0 0 0 0 0 0 0 0 0 0 0 0 0 0 0 0 0.05 0"/>
<feBlend mode="normal" in2="BackgroundImageFix" result="effect1_dropShadow_159_4683"/>
<feBlend mode="normal" in="SourceGraphic" in2="effect1_dropShadow_159_4683" result="shape"/>
</filter>
<filter id="filter4_d_159_4683" x="150.413" y="117.143" width="144.173" height="154.714" filterUnits="userSpaceOnUse" color-interpolation-filters="sRGB">
<feFlood flood-opacity="0" result="BackgroundImageFix"/>
<feColorMatrix in="SourceAlpha" type="matrix" values="0 0 0 0 0 0 0 0 0 0 0 0 0 0 0 0 0 0 127 0" result="hardAlpha"/>
<feOffset dy="4"/>
<feGaussianBlur stdDeviation="2"/>
<feComposite in2="hardAlpha" operator="out"/>
<feColorMatrix type="matrix" values="0 0 0 0 0 0 0 0 0 0 0 0 0 0 0 0 0 0 0.05 0"/>
<feBlend mode="normal" in2="BackgroundImageFix" result="effect1_dropShadow_159_4683"/>
<feBlend mode="normal" in="SourceGraphic" in2="effect1_dropShadow_159_4683" result="shape"/>
</filter>
<clipPath id="clip0_159_4683">
<rect width="430" height="449" fill="white"/>
</clipPath>
</defs>
</svg>
