<svg width="595" height="129" viewBox="0 0 595 129" fill="none" xmlns="http://www.w3.org/2000/svg">
<g clip-path="url(#clip0_115_1903)">
<path d="M134.137 100.337V18.097H153.829L154.14 42.2368H157.241C158.686 36.3191 160.598 31.4086 162.977 27.5177C165.356 23.6206 168.252 20.718 171.658 18.7976C175.071 16.8772 179.05 15.9138 183.597 15.9138C188.143 15.9138 192.303 16.9272 195.46 18.954C198.611 20.9808 201.121 23.9396 202.983 27.8305C204.845 31.7214 206.085 36.5256 206.707 42.2368H209.342C210.992 36.1127 213.165 31.1021 215.856 27.2049C218.54 23.3078 221.747 20.4553 225.471 18.635C229.195 16.8209 233.225 15.9076 237.565 15.9076C242.217 15.9076 246.272 16.8209 249.74 18.635C253.203 20.4553 256.099 23.1514 258.422 26.7358C260.745 30.3202 262.476 34.7866 263.615 40.1287C264.749 45.4771 265.322 51.6825 265.322 58.7387V100.325H240.2V61.8539C240.2 56.3491 239.757 51.7826 238.879 48.1482C238.001 44.5138 236.631 41.7864 234.769 39.9723C232.907 38.1582 230.528 37.245 227.638 37.245C224.332 37.245 221.51 38.3334 219.188 40.5166C216.858 42.6997 215.077 45.7336 213.838 49.6307C212.599 53.5279 211.976 57.913 211.976 62.7922V100.331H187.476V62.3231C187.476 56.6118 186.985 51.939 186.001 48.3046C185.017 44.6702 183.572 41.9178 181.66 40.0474C179.748 38.177 177.344 37.245 174.448 37.245C171.141 37.245 168.345 38.3334 166.072 40.5166C163.799 42.6997 162.062 45.7336 160.878 49.6307C159.689 53.5279 159.097 57.913 159.097 62.7922V100.331H134.131L134.137 100.337Z" fill="white"/>
<path d="M310.142 102.521C301.872 102.521 294.56 100.907 288.202 97.6914C281.843 94.4761 276.855 89.6469 273.237 83.2037C269.619 76.7669 267.806 68.7161 267.806 59.0577C267.806 49.3993 269.612 41.3798 273.237 34.993C276.855 28.6061 281.868 23.8332 288.277 20.6617C294.685 17.4964 302.027 15.9138 310.298 15.9138C318.568 15.9138 325.904 17.5277 332.318 20.743C338.727 23.9646 343.74 28.7625 347.358 35.1493C350.976 41.5362 352.782 49.5557 352.782 59.2141C352.782 68.8725 350.92 77.2298 347.202 83.6667C343.478 90.1035 338.39 94.8577 331.926 97.9166C325.462 100.976 318.2 102.514 310.142 102.514V102.521ZM310.914 84.2922C314.638 84.2922 317.74 83.4352 320.218 81.7212C322.697 80.0072 324.559 77.3862 325.798 73.8581C327.037 70.33 327.66 65.97 327.66 60.7717C327.66 55.2669 326.988 50.6253 325.642 46.8283C324.297 43.0375 322.311 40.1287 319.67 38.1082C317.036 36.0814 313.648 35.068 309.513 35.068C305.994 35.068 302.974 35.925 300.439 37.639C297.905 39.353 296.018 41.974 294.778 45.5021C293.539 49.0365 292.916 53.4466 292.916 58.7449C292.916 67.2586 294.492 73.6454 297.643 77.9054C300.794 82.1653 305.216 84.2922 310.902 84.2922H310.914Z" fill="white"/>
<path d="M397.596 102.521C389.326 102.521 382.015 100.907 375.656 97.6914C369.298 94.4761 364.31 89.6469 360.691 83.2037C357.073 76.7669 355.261 68.7161 355.261 59.0577C355.261 49.3993 357.067 41.3798 360.691 34.993C364.31 28.6061 369.323 23.8332 375.731 20.6617C382.139 17.4964 389.482 15.9138 397.752 15.9138C406.022 15.9138 413.359 17.5277 419.773 20.743C426.181 23.9646 431.194 28.7625 434.813 35.1493C438.431 41.5362 440.237 49.5557 440.237 59.2141C440.237 68.8725 438.375 77.2298 434.657 83.6667C430.933 90.1035 425.845 94.8577 419.381 97.9166C412.916 100.976 405.655 102.514 397.59 102.514L397.596 102.521ZM398.375 84.2922C402.099 84.2922 405.2 83.4352 407.679 81.7212C410.158 80.0072 412.02 77.3862 413.259 73.8581C414.498 70.33 415.121 65.97 415.121 60.7717C415.121 55.2669 414.448 50.6253 413.103 46.8283C411.758 43.0375 409.771 40.1287 407.131 38.1082C404.497 36.0814 401.109 35.068 396.974 35.068C393.455 35.068 390.435 35.925 387.9 37.639C385.365 39.353 383.478 41.974 382.239 45.5021C381 49.0365 380.377 53.4466 380.377 58.7449C380.377 67.2586 381.953 73.6454 385.104 77.9054C388.255 82.1653 392.677 84.2922 398.362 84.2922H398.375Z" fill="white"/>
<path d="M443.033 100.338V79.4631L483.662 40.3665V38.0332H443.967V18.097H515.299V38.8151L474.358 78.0681V80.2513H515.759V100.344H443.033V100.338Z" fill="white"/>
<path d="M551.114 129C546.979 129 542.738 128.637 538.397 127.912C534.056 127.186 529.946 126.122 526.066 124.721C522.186 123.32 518.855 121.475 516.065 119.191L522.112 96.9158C525.73 100.344 530.096 102.883 535.215 104.547C540.334 106.205 545.266 107.037 550.024 107.037C555.504 107.037 560.026 105.974 563.594 103.847C567.162 101.72 569.896 98.4484 571.814 94.032C573.726 89.6219 574.841 84.1421 575.146 77.5989L575.925 64.0496H572.201C571.273 70.7992 569.641 76.304 567.318 80.5578C564.989 84.8177 562.043 87.958 558.481 89.9785C554.919 91.999 550.703 93.0186 545.845 93.0186C539.848 93.0186 534.835 91.5173 530.806 88.5022C526.776 85.4933 523.75 80.9456 521.732 74.8716C519.714 68.7975 518.705 61.2409 518.705 52.208V18.097H543.827V45.9776C543.827 55.5359 544.78 62.3606 546.698 66.458C548.61 70.5615 551.631 72.6071 555.772 72.6071C557.946 72.6071 559.907 71.9815 561.663 70.7367C563.42 69.4919 564.92 67.7278 566.16 65.4383C567.399 63.1551 568.358 60.3777 569.031 57.1061C569.703 53.8345 570.04 50.175 570.04 46.1277V18.097H595.006V78.531C595.006 85.0742 594.408 91.0482 593.225 96.4466C592.036 101.845 590.279 106.568 587.95 110.621C585.627 114.669 582.7 118.072 579.188 120.824C575.676 123.577 571.59 125.628 566.938 126.979C562.286 128.331 557.011 129.006 551.12 129.006L551.114 129Z" fill="white"/>
<path d="M12.622 25.9567L0.00366211 39.9989L18.7682 57.0118L31.3865 42.9695L12.622 25.9567Z" fill="white"/>
<path d="M36.3904 1.59269e-05L23.772 14.0422L42.5365 31.0551L55.1549 17.0129L36.3904 1.59269e-05Z" fill="white"/>
<path d="M145.066 46.2903C134.672 42.0303 123.886 39.866 112.963 39.8284C112.035 38.1144 111.082 36.4004 110.117 34.6739C103.652 23.0826 95.3634 12.417 85.4802 2.97754L70.2038 6.44932C64.9664 20.1863 57.9915 33.1726 49.4783 45.058C38.2187 60.7779 24.4245 74.3961 8.47559 85.5433L19.2307 101.069C36.9358 88.6961 52.2558 73.5641 64.7671 56.1051C70.9574 47.4601 76.4065 38.2896 81.071 28.7062L83.313 28.4873C86.6759 32.6972 89.715 37.101 92.4116 41.6863C86.3272 43.1626 80.3985 45.965 75.2108 51.4323C63.615 63.6555 58.2406 82.622 70.4093 95.233C75.4537 100.463 82.2979 102.527 88.949 102.527C93.601 102.527 98.1659 101.513 101.94 99.8683C111.499 95.7022 118.188 86.7381 120.766 74.6213C121.924 69.1665 121.787 64.1058 120.803 59.2641C126.614 59.996 132.356 61.5161 137.967 63.8118L145.079 46.2966L145.066 46.2903ZM93.2087 82.9911C87.0869 85.437 81.1209 79.5193 83.1324 73.2201C85.4304 66.0263 93.6197 59.0702 101.286 59.3204C105.434 67.2836 100.968 79.8884 93.2087 82.9911Z" fill="white"/>
</g>
<defs>
<clipPath id="clip0_115_1903">
<rect width="595" height="129" fill="white"/>
</clipPath>
</defs>
</svg>
