<svg width="595" height="129" viewBox="0 0 595 129" fill="none" xmlns="http://www.w3.org/2000/svg">
<g clip-path="url(#clip0_115_1893)">
<path d="M134.137 100.338V18.0971H153.829L154.14 42.2369H157.241C158.686 36.3193 160.598 31.4087 162.977 27.5178C165.356 23.6207 168.252 20.7182 171.658 18.7977C175.071 16.8773 179.05 15.914 183.597 15.914C188.143 15.914 192.303 16.9274 195.46 18.9541C198.611 20.9809 201.121 23.9397 202.983 27.8306C204.845 31.7215 206.085 36.5257 206.707 42.2369H209.342C210.992 36.1128 213.165 31.1022 215.856 27.2051C218.54 23.3079 221.747 20.4554 225.471 18.6351C229.195 16.821 233.225 15.9077 237.565 15.9077C242.217 15.9077 246.272 16.821 249.74 18.6351C253.203 20.4554 256.099 23.1515 258.422 26.7359C260.745 30.3203 262.476 34.7867 263.615 40.1288C264.749 45.4773 265.322 51.6827 265.322 58.7388V100.325H240.2V61.854C240.2 56.3492 239.757 51.7827 238.879 48.1483C238.001 44.5139 236.631 41.7865 234.769 39.9725C232.907 38.1584 230.528 37.2451 227.638 37.2451C224.332 37.2451 221.51 38.3335 219.188 40.5167C216.858 42.6998 215.077 45.7337 213.838 49.6309C212.599 53.528 211.976 57.9131 211.976 62.7923V100.331H187.476V62.3232C187.476 56.612 186.985 51.9391 186.001 48.3047C185.017 44.6703 183.572 41.9179 181.66 40.0475C179.748 38.1771 177.344 37.2451 174.448 37.2451C171.141 37.2451 168.345 38.3335 166.072 40.5167C163.799 42.6998 162.062 45.7337 160.878 49.6309C159.689 53.528 159.097 57.9131 159.097 62.7923V100.331H134.131L134.137 100.338Z" fill="#2F2F2F"/>
<path d="M310.142 102.521C301.872 102.521 294.561 100.907 288.202 97.6914C281.844 94.4761 276.855 89.6469 273.237 83.2037C269.619 76.7669 267.807 68.7161 267.807 59.0577C267.807 49.3993 269.613 41.3798 273.237 34.993C276.855 28.6061 281.869 23.8332 288.277 20.6617C294.685 17.4964 302.027 15.9138 310.298 15.9138C318.568 15.9138 325.904 17.5277 332.319 20.743C338.727 23.9646 343.74 28.7625 347.358 35.1493C350.977 41.5362 352.783 49.5557 352.783 59.2141C352.783 68.8725 350.921 77.2298 347.203 83.6667C343.479 90.1035 338.391 94.8577 331.926 97.9166C325.462 100.976 318.201 102.514 310.142 102.514V102.521ZM310.914 84.2922C314.638 84.2922 317.74 83.4352 320.218 81.7212C322.697 80.0072 324.559 77.3862 325.798 73.8581C327.038 70.33 327.66 65.97 327.66 60.7717C327.66 55.2669 326.988 50.6253 325.643 46.8283C324.297 43.0375 322.311 40.1287 319.67 38.1082C317.036 36.0814 313.648 35.068 309.513 35.068C305.994 35.068 302.974 35.925 300.439 37.639C297.905 39.353 296.018 41.974 294.778 45.5021C293.539 49.0365 292.916 53.4466 292.916 58.7449C292.916 67.2586 294.492 73.6454 297.643 77.9054C300.794 82.1653 305.216 84.2922 310.902 84.2922H310.914Z" fill="#2F2F2F"/>
<path d="M397.597 102.521C389.326 102.521 382.015 100.907 375.657 97.6914C369.298 94.4761 364.31 89.6469 360.692 83.2037C357.073 76.7669 355.261 68.7161 355.261 59.0577C355.261 49.3993 357.067 41.3798 360.692 34.993C364.31 28.6061 369.323 23.8332 375.731 20.6617C382.14 17.4964 389.482 15.9138 397.752 15.9138C406.023 15.9138 413.359 17.5277 419.773 20.743C426.181 23.9646 431.195 28.7625 434.813 35.1493C438.431 41.5362 440.237 49.5557 440.237 59.2141C440.237 68.8725 438.375 77.2298 434.657 83.6667C430.933 90.1035 425.845 94.8577 419.381 97.9166C412.917 100.976 405.655 102.514 397.59 102.514L397.597 102.521ZM398.375 84.2922C402.099 84.2922 405.201 83.4352 407.679 81.7212C410.158 80.0072 412.02 77.3862 413.259 73.8581C414.498 70.33 415.121 65.97 415.121 60.7717C415.121 55.2669 414.449 50.6253 413.103 46.8283C411.758 43.0375 409.772 40.1287 407.131 38.1082C404.497 36.0814 401.109 35.068 396.974 35.068C393.455 35.068 390.435 35.925 387.9 37.639C385.366 39.353 383.479 41.974 382.239 45.5021C381 49.0365 380.377 53.4466 380.377 58.7449C380.377 67.2586 381.953 73.6454 385.104 77.9054C388.255 82.1653 392.677 84.2922 398.363 84.2922H398.375Z" fill="#2F2F2F"/>
<path d="M443.033 100.337V79.4629L483.662 40.3663V38.0331H443.968V18.0969H515.299V38.815L474.358 78.068V80.2511H515.76V100.344H443.033V100.337Z" fill="#2F2F2F"/>
<path d="M551.114 129C546.979 129 542.738 128.637 538.397 127.911C534.057 127.186 529.946 126.122 526.067 124.721C522.187 123.32 518.855 121.475 516.065 119.191L522.112 96.9156C525.73 100.344 530.096 102.883 535.215 104.547C540.334 106.205 545.266 107.037 550.024 107.037C555.505 107.037 560.026 105.974 563.594 103.847C567.163 101.72 569.897 98.4482 571.815 94.0319C573.727 89.6218 574.841 84.142 575.146 77.5988L575.925 64.0495H572.201C571.273 70.7991 569.641 76.3039 567.318 80.5576C564.989 84.8176 562.044 87.9578 558.481 89.9783C554.919 91.9989 550.703 93.0185 545.845 93.0185C539.848 93.0185 534.835 91.5172 530.806 88.5021C526.776 85.4932 523.75 80.9455 521.732 74.8714C519.714 68.7974 518.705 61.2408 518.705 52.2079V18.0969H543.828V45.9775C543.828 55.5358 544.781 62.3605 546.699 66.4578C548.611 70.5614 551.631 72.607 555.772 72.607C557.946 72.607 559.907 71.9814 561.664 70.7366C563.42 69.4917 564.921 67.7277 566.16 65.4382C567.399 63.155 568.358 60.3775 569.031 57.1059C569.703 53.8343 570.04 50.1749 570.04 46.1276V18.0969H595.006V78.5309C595.006 85.0741 594.409 91.048 593.225 96.4465C592.036 101.845 590.28 106.568 587.95 110.621C585.628 114.669 582.701 118.072 579.188 120.824C575.676 123.576 571.59 125.628 566.938 126.979C562.286 128.331 557.012 129.006 551.12 129.006L551.114 129Z" fill="#2F2F2F"/>
<path d="M12.622 25.9568L0.00366211 39.999L18.7682 57.0119L31.3865 42.9697L12.622 25.9568Z" fill="#2F2F2F"/>
<path d="M36.3906 1.59269e-05L23.7722 14.0422L42.5367 31.0551L55.1551 17.0129L36.3906 1.59269e-05Z" fill="#2F2F2F"/>
<path d="M145.066 46.2903C134.672 42.0303 123.886 39.866 112.963 39.8284C112.035 38.1144 111.082 36.4004 110.117 34.6739C103.653 23.0826 95.3637 12.417 85.4804 2.97754L70.2041 6.44932C64.9666 20.1863 57.9917 33.1726 49.4785 45.058C38.219 60.7779 24.4248 74.3961 8.47583 85.5433L19.2309 101.069C36.9361 88.6961 52.2561 73.5641 64.7674 56.1051C70.9576 47.4601 76.4068 38.2896 81.0713 28.7062L83.3132 28.4873C86.6762 32.6972 89.7152 37.101 92.4118 41.6863C86.3274 43.1626 80.3987 45.965 75.2111 51.4323C63.6152 63.6555 58.2408 82.622 70.4096 95.233C75.454 100.463 82.2981 102.527 88.9492 102.527C93.6013 102.527 98.1661 101.513 101.94 99.8683C111.499 95.7022 118.188 86.7381 120.766 74.6213C121.925 69.1665 121.788 64.1058 120.804 59.2641C126.614 59.996 132.356 61.5161 137.967 63.8118L145.079 46.2966L145.066 46.2903ZM93.2089 82.9911C87.0872 85.437 81.1211 79.5193 83.1326 73.2201C85.4306 66.0263 93.62 59.0702 101.286 59.3204C105.434 67.2836 100.969 79.8884 93.2089 82.9911Z" fill="#2F2F2F"/>
</g>
<defs>
<clipPath id="clip0_115_1893">
<rect width="595" height="129" fill="white"/>
</clipPath>
</defs>
</svg>
