<svg width="261" height="149" viewBox="0 0 261 149" fill="none" xmlns="http://www.w3.org/2000/svg">
<g clip-path="url(#clip0_465_3485)">
<path d="M127.101 135.984C164.545 135.984 194.9 105.543 194.9 67.9919C194.9 30.441 164.545 0 127.101 0C89.6565 0 59.3018 30.441 59.3018 67.9919C59.3018 105.543 89.6565 135.984 127.101 135.984Z" fill="#E6E2FB"/>
<path d="M49.6464 108.157C73.7095 108.157 93.2165 88.5941 93.2165 64.4626C93.2165 40.331 73.7095 20.7686 49.6464 20.7686C25.5832 20.7686 6.07617 40.331 6.07617 64.4626C6.07617 88.5941 25.5832 108.157 49.6464 108.157Z" fill="#E6E2FB"/>
<path d="M227.197 116.559C244.212 99.4956 244.212 71.8301 227.197 54.7665C210.182 37.703 182.594 37.703 165.579 54.7665C148.564 71.8301 148.564 99.4956 165.579 116.559C182.594 133.623 210.182 133.623 227.197 116.559Z" fill="#E6E2FB"/>
<path d="M218.31 58.9273C224.926 58.9273 230.289 53.5488 230.289 46.9141C230.289 40.2794 224.926 34.9009 218.31 34.9009C211.694 34.9009 206.331 40.2794 206.331 46.9141C206.331 53.5488 211.694 58.9273 218.31 58.9273Z" fill="#E6E2FB"/>
<path d="M65.0468 19.7354C69.3785 19.7354 72.8901 16.2139 72.8901 11.8699C72.8901 7.52591 69.3785 4.00439 65.0468 4.00439C60.7151 4.00439 57.2036 7.52591 57.2036 11.8699C57.2036 16.2139 60.7151 19.7354 65.0468 19.7354Z" fill="#E6E2FB"/>
<path d="M37.825 137.914L36.7647 134.4L36.3812 133.118L30.839 114.748L27.8762 104.914L23.3718 89.9973H23.2966H17.7168H17.4612L14.6863 99.7783L12.483 107.576L10.2722 115.374L8.25683 122.493L3.88778 137.914H0V143.766H41.5097V137.914H37.825Z" fill="#B5A7F4"/>
<path d="M261 140.033H0.0825195V149.008H261V140.033Z" fill="#B5A7F4"/>
<path d="M19.5142 138.276L37.3212 75.4126H44.7358L63.6784 138.216L19.5142 138.276Z" fill="#F7543E"/>
<path d="M67.8896 136.331H15.1226V143.766H67.8896V136.331Z" fill="#FA998B"/>
<path d="M50.4582 94.3788L33.8017 87.8406L30.9893 97.7649L54.2257 106.875L50.4582 94.3788Z" fill="#ECEFF1"/>
<path d="M28.1845 107.674L25.3721 117.591L61.7608 131.859L57.9933 119.363L28.1845 107.674Z" fill="#ECEFF1"/>
<g style="mix-blend-mode:multiply" opacity="0.18">
<path d="M61.8659 131.859L61.3696 130.23L54.3309 106.875L50.556 94.3788L44.8409 75.4126H37.6519L42.4044 91.1738L43.367 94.3788L46.1719 103.677L47.1344 106.875L49.9393 116.166L53.7068 128.661L54.1806 130.23L54.6693 131.859L56.0229 136.331H60.8056H63.2119L61.8659 131.859Z" fill="#666666"/>
</g>
<path d="M183.072 60.1414L198.63 143.887H190.283L175.326 60.1414H183.072Z" fill="#333333"/>
<path d="M179.394 60.1414L194.953 143.887H186.606L171.649 60.1414H179.394Z" fill="#666666"/>
<path d="M96.4122 60.1414L111.963 143.887H103.616L88.6592 60.1414H96.4122Z" fill="#333333"/>
<path d="M92.7349 60.1414L108.286 143.887H99.9465L84.9819 60.1414H92.7349Z" fill="#666666"/>
<path d="M76.4169 60.1414L60.9185 143.887H69.2655L84.1474 59.9377L76.4169 60.1414Z" fill="#4D4D4D"/>
<path d="M169.648 105.442H82.35L79.5752 102.749L166.873 60.1414L169.648 62.8411V105.442Z" fill="#CCCCCC"/>
<path d="M79.5752 102.75H90.0354L79.5752 89.9973V102.75Z" fill="#ECEFF1"/>
<path d="M115.182 60.1414L150.127 102.749H166.874V98.5565L135.365 60.1414H115.182Z" fill="#ECEFF1"/>
<path d="M79.5752 60.1414V65.3297L110.264 102.749H129.891L94.9458 60.1414H79.5752Z" fill="#ECEFF1"/>
<path d="M166.874 60.1414H155.602L166.874 73.8891V60.1414Z" fill="#ECEFF1"/>
<path d="M79.5752 89.9973L90.0354 102.75H110.264L79.5752 65.3298V89.9973Z" fill="#F7543E"/>
<path d="M94.9458 60.1414L129.891 102.749H150.127L115.182 60.1414H94.9458Z" fill="#F7543E"/>
<path d="M155.601 60.1414H135.365L166.874 98.5565V73.8891L155.601 60.1414Z" fill="#F7543E"/>
<path d="M169.648 105.442L166.873 102.75H79.5752L82.3049 105.487L169.648 105.442Z" fill="#B2B2B2"/>
<path d="M170.664 60.1414L155.165 143.887H163.512L178.552 60.1414H170.664Z" fill="#4D4D4D"/>
<path d="M160.858 121.324H66.8291V128.299H160.858V121.324Z" fill="#4D4D4D"/>
<path d="M159.722 118.058H65.6938V125.034H159.722V118.058Z" fill="#999999"/>
<path d="M71.8298 60.1414L56.3389 143.887H64.6784L79.5678 59.9377L71.8298 60.1414Z" fill="#999999"/>
<path d="M166.873 60.1414L151.375 143.887H159.722L174.536 60.1414H166.873Z" fill="#999999"/>
<path d="M257.315 138.872L256.255 135.358L255.871 134.076L250.329 115.705L247.366 105.872L242.87 90.9551H242.787H237.207H236.951L234.184 100.736L231.973 108.534L229.762 116.331L227.747 123.45L223.378 138.872H219.49V144.724H261V138.872H257.315Z" fill="#B5A7F4"/>
<path d="M186.29 138.276L204.097 75.4126H211.512L230.454 138.216L186.29 138.276Z" fill="#F7543E"/>
<path d="M234.665 136.331H181.898V143.766H234.665V136.331Z" fill="#FA998B"/>
<path d="M217.234 94.3788L200.578 87.8406L197.765 97.7649L221.002 106.875L217.234 94.3788Z" fill="#ECEFF1"/>
<path d="M194.96 107.674L192.148 117.591L228.537 131.859L224.769 119.363L194.96 107.674Z" fill="#ECEFF1"/>
<g style="mix-blend-mode:multiply" opacity="0.18">
<path d="M228.634 131.859L228.145 130.23L221.099 106.875L217.332 94.3788L211.617 75.4126H204.428L209.18 91.1738L210.143 94.3788L212.948 103.677L213.91 106.875L216.715 116.166L220.483 128.661L220.956 130.23L221.445 131.859L222.791 136.331H227.581H229.988L228.634 131.859Z" fill="#666666"/>
</g>
</g>
<defs>
<clipPath id="clip0_465_3485">
<rect width="261" height="149" fill="white"/>
</clipPath>
</defs>
</svg>
