<svg width="200" height="132" viewBox="0 0 200 132" fill="none" xmlns="http://www.w3.org/2000/svg">
<path opacity="0.41" d="M165.31 131.803C184.347 131.803 199.78 116.37 199.78 97.3326C199.78 78.2953 184.347 62.8625 165.31 62.8625C146.273 62.8625 130.84 78.2953 130.84 97.3326C130.84 116.37 146.273 131.803 165.31 131.803Z" fill="#9D8AF1"/>
<path opacity="0.41" d="M34.47 131.803C53.5072 131.803 68.9399 116.37 68.9399 97.3326C68.9399 78.2953 53.5072 62.8625 34.47 62.8625C15.4327 62.8625 0 78.2953 0 97.3326C0 116.37 15.4327 131.803 34.47 131.803Z" fill="#9D8AF1"/>
<path d="M67.4437 74.3356C87.6529 73.5451 103.397 56.5841 102.61 36.4522C101.822 16.3202 84.8012 0.640874 64.592 1.43136C44.3828 2.22185 28.6384 19.1828 29.4258 39.3148C30.2133 59.4467 47.2345 75.1261 67.4437 74.3356Z" fill="white"/>
<path d="M135.444 74.3356C155.653 73.5451 171.397 56.5841 170.61 36.4522C169.822 16.3202 152.801 0.640874 132.592 1.43136C112.383 2.22185 96.6384 19.1828 97.4258 39.3148C98.2133 59.4467 115.234 75.1261 135.444 74.3356Z" fill="white"/>
<path d="M67.1711 56.4036C77.5061 55.9993 85.5578 47.3278 85.1552 37.0352C84.7526 26.7426 76.0481 18.7264 65.7132 19.1307C55.3782 19.535 47.3264 28.2065 47.729 38.4991C48.1316 48.7917 56.8362 56.8078 67.1711 56.4036Z" fill="black"/>
<path d="M135.171 56.4036C145.506 55.9993 153.558 47.3278 153.155 37.0352C152.753 26.7426 144.048 18.7264 133.713 19.1307C123.378 19.535 115.326 28.2065 115.729 38.4991C116.132 48.7917 124.836 56.8078 135.171 56.4036Z" fill="black"/>
<path fill-rule="evenodd" clip-rule="evenodd" d="M128.459 84.4921C132.774 82.4369 137.939 84.2694 139.994 88.5851C142.049 92.9007 140.217 98.0653 135.901 100.12C117.087 109.08 99.1121 109.938 85.936 108.589C79.3435 107.914 73.8967 106.682 70.054 105.603C68.1295 105.062 66.5976 104.557 65.5147 104.174C64.9729 103.982 64.5425 103.82 64.2305 103.699C64.0745 103.639 63.9479 103.588 63.8518 103.549C63.8037 103.53 63.7632 103.514 63.7304 103.5L63.687 103.482L63.6696 103.475L63.662 103.472C63.6585 103.47 63.6552 103.469 67 95.4863L63.6552 103.469C59.2465 101.622 57.1702 96.5501 59.0175 92.1414C60.861 87.7418 65.9156 85.6649 70.3179 87.4925C70.3203 87.4935 70.324 87.495 70.3289 87.497C70.3526 87.5065 70.4049 87.5275 70.4851 87.5585C70.6456 87.6207 70.9171 87.7233 71.2928 87.8564C72.0447 88.1226 73.2102 88.5094 74.7354 88.9379C77.7921 89.7966 82.2541 90.8113 87.6991 91.3688C98.598 92.4847 113.214 91.7522 128.459 84.4921Z" fill="#5E4AB8"/>
</svg>
